<?xml version="1.0" encoding="UTF-8"?>
<svg version="1.1" xmlns="http://www.w3.org/2000/svg" width="1081" height="804">
<path d="M0 0 C1.10108479 0.88699464 2.18827214 1.79135772 3.265625 2.70703125 C3.96381348 3.29291016 4.66200195 3.87878906 5.38134766 4.48242188 C12.40832063 10.88561008 16.14811373 18.39773239 20.140625 26.83203125 C20.83652029 28.26624672 21.53405134 29.69966957 22.2331543 31.13232422 C23.95367918 34.66941162 25.65286231 38.21617835 27.34259033 41.76806641 C28.67335175 44.56351895 30.01489043 47.35377598 31.35546875 50.14453125 C32.70649182 52.96275874 34.05450911 55.78224947 35.39404297 58.60595703 C38.87310348 65.93725542 42.49217333 73.19239261 46.1418457 80.43994141 C49.91092899 87.94595656 53.53680798 95.51511814 57.140625 103.1015625 C60.27237866 109.67646577 63.4901651 116.20263787 66.765625 122.70703125 C71.0024866 131.12057176 75.09870999 139.5928721 79.140625 148.1015625 C82.27237866 154.67646577 85.4901651 161.20263787 88.765625 167.70703125 C93.0024866 176.12057176 97.09870999 184.5928721 101.140625 193.1015625 C104.70720941 200.58936329 108.39929214 208.00824895 112.12963867 215.41552734 C116.01192128 223.14679802 119.75211387 230.94181041 123.46801758 238.75415039 C126.65380078 245.44749544 129.9109378 252.09650727 133.265625 258.70703125 C148.67741939 255.30065082 163.87794773 251.09441779 179.1004982 246.93959427 C182.11543708 246.11729972 185.13105136 245.29749677 188.14664745 244.47761631 C205.21260052 239.8370354 222.26885308 235.16155143 239.31808662 230.45993042 C242.05158995 229.70613358 244.78517876 228.95264745 247.51878357 228.19921875 C255.46192065 226.0095977 263.40461361 223.81844135 271.34490013 221.61850262 C274.6411209 220.70586493 277.93805141 219.79581022 281.23513031 218.88627815 C282.7516048 218.46730285 284.26777127 218.04721056 285.78357697 217.62582207 C296.22170733 214.72455144 306.70393876 212.12029141 317.265625 209.70703125 C317.265625 210.36703125 317.265625 211.02703125 317.265625 211.70703125 C296.55717279 222.16921769 275.83909748 232.54499681 254.71142578 242.14013672 C251.73463374 243.49376087 248.76238457 244.85682335 245.79185486 246.22412109 C167.41169959 282.27183148 85.76964482 310.09787635 -56.71208191 350.14555359 C-59.79950288 351.00275768 -62.88655211 351.86129799 -65.97363281 352.71972656 C-70.90179006 354.08959241 -75.83079044 355.45635575 -80.76101685 356.8187561 C-82.43426813 357.28115299 -84.10734742 357.74417279 -85.78024292 358.20785522 C-87.99468636 358.82097121 -90.2100293 359.43069519 -92.42578125 360.0390625 C-93.61373291 360.36624268 -94.80168457 360.69342285 -96.02563477 361.03051758 C-98.734375 361.70703125 -98.734375 361.70703125 -100.734375 361.70703125 C-97.6436446 367.76869948 -94.55095351 373.82936461 -91.45703125 379.8894043 C-90.40940154 381.94191966 -89.36218641 383.9946467 -88.31542969 386.04760742 C-75.49505585 411.21650318 -75.49505585 411.21650318 -62.07394409 436.06852722 C-60.56309209 438.84941301 -59.734375 440.48565608 -59.734375 443.70703125 C-72.66296762 449.73652343 -85.60863537 455.72390183 -98.671875 461.45703125 C-99.64133057 461.88677246 -100.61078613 462.31651367 -101.60961914 462.75927734 C-102.50543701 463.14937988 -103.40125488 463.53948242 -104.32421875 463.94140625 C-105.10659912 464.28397461 -105.88897949 464.62654297 -106.69506836 464.97949219 C-108.734375 465.70703125 -108.734375 465.70703125 -111.734375 465.70703125 C-112.06010498 465.10044678 -112.38583496 464.4938623 -112.72143555 463.86889648 C-118.72919528 452.69486159 -124.77694213 441.54900672 -131.046875 430.51953125 C-136.65173443 420.6595889 -142.15264576 410.7451314 -147.61645508 400.80664062 C-151.08380608 394.50153477 -154.56719331 388.20628343 -158.0859375 381.9296875 C-158.78927594 380.67287992 -159.49256454 379.41604445 -160.19580078 378.15917969 C-161.20778768 376.35067318 -162.22113377 374.54300883 -163.23919678 372.73791504 C-164.16834952 371.09036562 -165.09212916 369.43978941 -166.015625 367.7890625 C-166.54220703 366.85296143 -167.06878906 365.91686035 -167.61132812 364.95239258 C-168.734375 362.70703125 -168.734375 362.70703125 -168.734375 360.70703125 C-169.394375 360.70703125 -170.054375 360.70703125 -170.734375 360.70703125 C-171.00805908 361.57938919 -171.28174316 362.45174713 -171.5637207 363.35054016 C-172.67077235 366.52467023 -173.96105295 369.40776614 -175.46484375 372.41088867 C-176.01301758 373.51031296 -176.56119141 374.60973724 -177.12597656 375.74247742 C-178.01494629 377.5096386 -178.01494629 377.5096386 -178.921875 379.3125 C-179.54554053 380.55863528 -180.16890716 381.80492019 -180.79199219 383.05134583 C-182.10087961 385.66755872 -183.41243251 388.28241141 -184.72607422 390.89624023 C-186.37958908 394.18651713 -188.0279846 397.47932319 -189.67457581 400.77306938 C-200.93992944 423.30273549 -200.93992944 423.30273549 -206.484375 433.6953125 C-211.37970106 442.88641277 -216.02188708 452.20277929 -220.671875 461.51953125 C-221.07634857 462.32990152 -221.48082214 463.1402718 -221.89755249 463.97519875 C-224.84598613 469.88440221 -227.79054859 475.79553155 -230.734375 481.70703125 C-234.08601427 488.4374602 -237.43936743 495.16702752 -240.796875 501.89453125 C-241.40020062 503.10380626 -241.40020062 503.10380626 -242.01571465 504.33751106 C-246.74402817 513.80899941 -251.52548918 523.24215994 -256.51625061 532.57884216 C-259.23470847 537.6856624 -261.77254413 542.86390741 -264.26171875 548.0859375 C-264.9990488 549.619285 -265.73667645 551.15248943 -266.47460938 552.68554688 C-267.58363455 554.98996683 -268.68455029 557.29677278 -269.76342773 559.61547852 C-274.67038088 570.1269365 -279.28163193 577.63579672 -288.734375 584.70703125 C-289.37560303 585.1980835 -290.01683105 585.68913574 -290.67749023 586.19506836 C-317.76081372 605.88156914 -352.30820119 612.80116624 -384.984375 607.64453125 C-385.69313782 607.53476959 -386.40190063 607.42500793 -387.13214111 607.31192017 C-430.94786119 600.48456453 -473.86199215 588.3132108 -513.734375 568.70703125 C-514.6320459 568.2677832 -515.5297168 567.82853516 -516.45458984 567.37597656 C-535.3529302 558.03927591 -553.38852954 547.04779091 -569.734375 533.70703125 C-570.65992188 532.97226562 -571.58546875 532.2375 -572.5390625 531.48046875 C-588.9450567 518.32778785 -604.96086933 503.4494476 -617.734375 486.70703125 C-618.65070197 485.54270133 -619.56739268 484.37865761 -620.484375 483.21484375 C-658.13519331 434.85280254 -676.62923863 375.50832296 -678.734375 314.70703125 C-678.77691406 313.54816406 -678.81945312 312.38929688 -678.86328125 311.1953125 C-679.40246497 280.2461672 -674.6761841 249.53699367 -666.734375 219.70703125 C-666.50524414 218.83916992 -666.27611328 217.97130859 -666.04003906 217.07714844 C-658.09215381 187.51193814 -645.07044197 158.57487582 -628.734375 132.70703125 C-628.1053125 131.70542969 -627.47625 130.70382813 -626.828125 129.671875 C-613.83577953 109.66035984 -598.89204935 91.72979181 -582.109375 74.83203125 C-581.62800079 74.34520874 -581.14662659 73.85838623 -580.65066528 73.35681152 C-574.02881477 66.67920609 -567.1329304 60.51782131 -559.734375 54.70703125 C-559.05552246 54.16884766 -558.37666992 53.63066406 -557.67724609 53.07617188 C-533.28150546 33.93063684 -506.0195735 18.91865264 -476.734375 8.70703125 C-475.83106445 8.39040527 -474.92775391 8.0737793 -473.99707031 7.74755859 C-462.19322505 3.69514488 -450.21777571 0.7919763 -437.984375 -1.60546875 C-436.75460937 -1.8480542 -435.52484375 -2.09063965 -434.2578125 -2.34057617 C-412.85192379 -6.34145217 -391.73950425 -6.58207674 -370.04605293 -6.52868819 C-365.63824763 -6.51976236 -361.23044434 -6.52166809 -356.82263184 -6.52204895 C-349.4092429 -6.52111686 -341.99589526 -6.51250476 -334.58251953 -6.4987793 C-326.11280568 -6.48315206 -317.64313719 -6.47777837 -309.17340994 -6.47851485 C-300.03633315 -6.47920108 -290.89927296 -6.47219184 -281.76220131 -6.46306825 C-279.18850766 -6.46097642 -276.61481685 -6.46023254 -274.04112244 -6.45982933 C-264.49735974 -6.45662378 -254.95477394 -6.41816942 -245.41140747 -6.33013535 C-242.21388603 -6.30166046 -239.01670482 -6.28775167 -235.81906128 -6.28363419 C-231.77760948 -6.27716804 -227.73742046 -6.24047191 -223.69638348 -6.18300688 C-222.18778087 -6.16625661 -220.67902864 -6.15942191 -219.17033863 -6.16352499 C-210.27172338 -6.17989343 -203.51769952 -5.5839664 -196.734375 0.70703125 C-189.21922499 8.89770036 -186.37542106 19.62107187 -186.5859375 30.546875 C-187.13152918 38.48666975 -189.04150533 46.16852458 -193.734375 52.70703125 C-198.62487659 56.94431998 -203.47373975 59.8302575 -210.03955078 59.83984375 C-211.43220657 59.84286499 -211.43220657 59.84286499 -212.85299683 59.84594727 C-214.43783371 59.83905884 -214.43783371 59.83905884 -216.0546875 59.83203125 C-217.78829025 59.82804321 -217.78829025 59.82804321 -219.55691528 59.82397461 C-244.32536475 59.70176346 -269.09345796 59.05876379 -293.85644531 58.56152344 C-327.11321178 57.87247443 -327.11321178 57.87247443 -360.37479019 57.52392578 C-361.88053813 57.51600484 -363.38627346 57.50467282 -364.89196396 57.48931885 C-379.88473784 57.34658243 -394.08970068 59.55227806 -408.734375 62.70703125 C-409.8157373 62.93165039 -410.89709961 63.15626953 -412.01123047 63.38769531 C-454.97185785 72.42857478 -498.16043219 89.80376788 -531.734375 118.70703125 C-532.87306364 119.66351603 -534.01244481 120.61917668 -535.15234375 121.57421875 C-545.4161435 130.21720366 -554.38706523 139.16159658 -562.734375 149.70703125 C-563.5284375 150.68414062 -564.3225 151.66125 -565.140625 152.66796875 C-575.90266954 166.18863863 -584.44066775 181.06938906 -591.734375 196.70703125 C-592.25515625 197.80789062 -592.7759375 198.90875 -593.3125 200.04296875 C-601.61849076 218.44729564 -606.39655374 237.85595996 -609.734375 257.70703125 C-609.86714844 258.47869629 -609.99992188 259.25036133 -610.13671875 260.04541016 C-620.2306344 321.55875287 -600.9134589 388.63515325 -565.12744141 438.74462891 C-527.4889283 490.59594818 -472.78602855 523.7446876 -409.65771484 534.04589844 C-400.39893878 535.49780643 -391.09683183 536.34717957 -381.734375 536.70703125 C-380.90534668 536.74103027 -380.07631836 536.7750293 -379.22216797 536.81005859 C-368.44446269 537.19701102 -358.67768107 537.46381403 -348.734375 532.70703125 C-347.35958984 532.07087891 -347.35958984 532.07087891 -345.95703125 531.421875 C-320.9040182 518.80752481 -310.50212907 493.45200692 -298.6784668 469.62792969 C-295.02870298 462.27583617 -291.34679554 454.95057133 -287.484375 447.70703125 C-283.2405718 439.74734079 -279.21000758 431.68973801 -275.1965332 423.61181641 C-271.71251804 416.61693863 -268.12061092 409.68910812 -264.453125 402.7890625 C-261.28536687 396.8077684 -258.24435315 390.76907044 -255.234375 384.70703125 C-251.83892144 377.86865187 -248.38026208 371.07385246 -244.796875 364.33203125 C-240.99550213 357.17864907 -237.33874635 349.96158737 -233.734375 342.70703125 C-229.74430599 334.67617738 -225.66178226 326.70727343 -221.453125 318.7890625 C-218.28536687 312.8077684 -215.24435315 306.76907044 -212.234375 300.70703125 C-208.83892144 293.86865187 -205.38026208 287.07385246 -201.796875 280.33203125 C-197.99550213 273.17864907 -194.33874635 265.96158737 -190.734375 258.70703125 C-186.74430599 250.67617738 -182.66178226 242.70727343 -178.453125 234.7890625 C-175.28536687 228.8077684 -172.24435315 222.76907044 -169.234375 216.70703125 C-165.83892144 209.86865187 -162.38026208 203.07385246 -158.796875 196.33203125 C-154.99550213 189.17864907 -151.33874635 181.96158737 -147.734375 174.70703125 C-143.74430599 166.67617738 -139.66178226 158.70727343 -135.453125 150.7890625 C-132.28536687 144.8077684 -129.24435315 138.76907044 -126.234375 132.70703125 C-122.83892144 125.86865187 -119.38026208 119.07385246 -115.796875 112.33203125 C-111.99550213 105.17864907 -108.33874635 97.96158737 -104.734375 90.70703125 C-100.74430599 82.67617738 -96.66178226 74.70727343 -92.453125 66.7890625 C-89.28535762 60.80775092 -86.24497003 54.76877691 -83.234375 48.70703125 C-58.79704647 -0.39613294 -58.79704647 -0.39613294 -35.734375 -9.29296875 C-22.30507159 -12.56745782 -10.90696973 -7.69483859 0 0 Z M-38.234375 106.64453125 C-44.2006538 111.56671126 -47.96130894 117.41909245 -51.375 124.28125 C-51.80688629 125.12990128 -52.23877258 125.97855255 -52.68374634 126.85292053 C-54.12687664 129.69538107 -55.55563316 132.54481472 -56.984375 135.39453125 C-58.01378518 137.42971645 -59.04391701 139.46453676 -60.07470703 141.49902344 C-63.64564183 148.55950249 -67.1924135 155.63199127 -70.734375 162.70703125 C-71.07634415 163.39006569 -71.41831329 164.07310013 -71.77064514 164.77683258 C-74.35621009 169.94171714 -76.94020918 175.10738392 -79.5234375 180.2734375 C-79.89893234 181.02435354 -80.27442719 181.77526958 -80.66130066 182.54894066 C-84.41433094 190.0550829 -88.16519864 197.56228021 -91.90509224 205.07497787 C-104.59891893 230.57321207 -104.59891893 230.57321207 -110.80926514 242.22831726 C-117.28816249 254.44763861 -123.40373296 266.85861028 -129.58789062 279.22875977 C-131.50262187 283.05832561 -133.42292871 286.88506801 -135.34449959 290.71120548 C-136.83299685 293.67713125 -138.31789509 296.64484758 -139.801754 299.61309624 C-140.50938468 301.02717821 -141.21831151 302.44061235 -141.92856216 303.8533802 C-142.91074992 305.80802125 -143.88789827 307.76509994 -144.86376953 309.72290039 C-145.41984894 310.83363419 -145.97592834 311.94436798 -146.54885864 313.08876038 C-147.87186638 315.53166115 -147.87186638 315.53166115 -147.734375 317.70703125 C-136.0215475 317.13830459 -124.56062628 315.50101029 -112.984375 313.70703125 C-111.99217957 313.55430756 -110.99998413 313.40158386 -109.97772217 313.24423218 C-75.42655587 307.9083759 -41.10885934 301.58144238 -6.921875 294.26953125 C-5.68826233 294.00637115 -4.45464966 293.74321106 -3.18365479 293.47207642 C0.30732819 292.72457724 3.79658428 291.96960122 7.28515625 291.2109375 C8.32546494 290.98734558 9.36577362 290.76375366 10.43760681 290.53338623 C11.39897049 290.32200012 12.36033417 290.11061401 13.35083008 289.89282227 C14.18375076 289.71123062 15.01667145 289.52963898 15.87483215 289.34254456 C18.44055277 288.66053248 20.8218047 287.73889823 23.265625 286.70703125 C20.1194401 278.91429969 16.71578975 271.33708055 12.9140625 263.84375 C12.41452057 262.84986771 11.91497864 261.85598541 11.40029907 260.83198547 C9.81760709 257.68420272 8.22956801 254.53916258 6.640625 251.39453125 C4.56217905 247.2749049 2.48652982 243.15388734 0.4140625 239.03125 C-0.09908508 238.01054413 -0.61223267 236.98983826 -1.14093018 235.9382019 C-5.1538046 227.92804241 -9.03766855 219.86078844 -12.88369751 211.76945496 C-16.42103631 204.33425876 -20.06273708 196.95792052 -23.7744751 189.60852051 C-29.37508117 178.51414259 -34.88009407 167.38120699 -40.18847656 156.14331055 C-42.94446599 150.31279757 -45.81620157 144.57632157 -48.90625 138.9140625 C-49.91107486 136.23610946 -49.71490106 135.36143771 -48.734375 132.70703125 C-47.10546875 130.78515625 -47.10546875 130.78515625 -45.171875 128.95703125 C-44.53121094 128.3434375 -43.89054688 127.72984375 -43.23046875 127.09765625 C-42.48990234 126.40929687 -42.48990234 126.40929687 -41.734375 125.70703125 C-35.34482346 137.67614359 -29.19304177 149.73261781 -23.28952026 161.94854736 C-21.1297453 166.41703631 -18.95955709 170.88046033 -16.7890625 175.34375 C-16.14235847 176.6740625 -16.14235847 176.6740625 -15.48258972 178.03125 C-11.60553069 185.99513302 -7.65227346 193.91941275 -3.671875 201.83203125 C0.94045063 211.00456841 5.44938346 220.21573085 9.83837891 229.49707031 C15.07592321 240.51231082 20.58389014 251.39447087 26.07348633 262.28564453 C29.63452948 269.3616806 33.15270971 276.41865892 36.265625 283.70703125 C43.12598901 283.04738086 49.61006423 281.47075485 56.265625 279.70703125 C55.66309121 276.00470712 54.61816743 273.02735747 52.95581055 269.67089844 C52.23321297 268.20085358 52.23321297 268.20085358 51.49601746 266.70111084 C50.97010513 265.64603333 50.44419281 264.59095581 49.90234375 263.50390625 C49.35512161 262.39388245 48.80789948 261.28385864 48.24409485 260.14019775 C46.78146666 257.17542594 45.31397629 254.21317047 43.84381104 251.25213623 C41.25142328 246.02739037 38.67202599 240.79620068 36.08984375 235.56640625 C35.51944366 234.41241333 34.94904358 233.25842041 34.36135864 232.06945801 C30.02098437 223.2753412 25.75756605 214.44620687 21.52549744 205.59954834 C16.90623999 195.94375295 12.21894749 186.32209332 7.515625 176.70703125 C5.78840031 173.17480247 4.06179467 169.64227217 2.3359375 166.109375 C1.90977142 165.23699692 1.48360535 164.36461884 1.04452515 163.46580505 C-1.77826893 157.68152081 -4.57944208 151.8871847 -7.3671875 146.0859375 C-8.09273007 144.57875516 -8.818315 143.07159322 -9.54394531 141.56445312 C-10.87914666 138.79082843 -12.20836028 136.01444706 -13.53417969 133.23632812 C-20.41577087 117.41318487 -20.41577087 117.41318487 -32.734375 106.20703125 C-35.69869815 105.45589029 -35.69869815 105.45589029 -38.234375 106.64453125 Z " fill="#175887" transform="translate(678.734375,10.29296875)"/>
<path d="M0 0 C0 0.66 0 1.32 0 2 C-0.64735107 2.36125977 -1.29470215 2.72251953 -1.96166992 3.09472656 C-13.19254103 9.3652385 -24.41413027 15.64620326 -35.5625 22.0625 C-52.45929812 31.76027037 -69.66279083 40.88977903 -86.95703125 49.85546875 C-90.38203248 51.63116182 -93.7992904 53.4205094 -97.20874023 55.22583008 C-108.87926267 61.40234591 -120.62496903 67.41234066 -132.4375 73.3125 C-133.80621246 73.99690155 -133.80621246 73.99690155 -135.20257568 74.69512939 C-149.51550958 81.84489976 -163.91508489 88.73466724 -178.47021484 95.37841797 C-185.31264628 98.52182851 -192.12279183 101.73454563 -198.9375 104.9375 C-208.27627906 109.32547132 -217.62536462 113.68899297 -227 118 C-226.17314697 119.69129028 -226.17314697 119.69129028 -225.32958984 121.41674805 C-158.24999997 258.62500006 -158.24999997 258.62500006 -156.87510681 261.43728638 C-155.95808921 263.31300095 -155.04106651 265.18871303 -154.1240387 267.06442261 C-151.83769942 271.74096918 -149.55144789 276.41755862 -147.26538086 281.09423828 C-143.0770151 289.66228635 -138.88790121 298.2299655 -134.69567871 306.79612732 C-123.74496207 329.17238371 -112.82020111 351.56029076 -102 374 C-112.07387607 384.39693978 -130.05049764 386.83732829 -143.875 387.25 C-155.91145236 387.11117125 -167.50875621 384.74351224 -178.9375 381.0625 C-179.7008667 380.82192871 -180.4642334 380.58135742 -181.25073242 380.33349609 C-186.41186593 378.56841537 -188.50981531 376.76565236 -191.04882812 372.0534668 C-191.37302734 371.35906494 -191.69722656 370.66466309 -192.03125 369.94921875 C-192.41949951 369.12631348 -192.80774902 368.3034082 -193.20776367 367.45556641 C-193.84742065 366.08537354 -193.84742065 366.08537354 -194.5 364.6875 C-199.64803774 353.79300188 -204.90165386 342.95312963 -210.1875 332.125 C-211.84536848 328.72671679 -213.50281245 325.32822663 -215.16015625 321.9296875 C-215.5700177 321.08932449 -215.97987915 320.24896149 -216.40216064 319.38313293 C-220.32172321 311.34454033 -224.22572433 303.29844859 -228.125 295.25 C-229.43096103 292.55467367 -230.73695371 289.85936267 -232.04296875 287.1640625 C-232.36605011 286.49727478 -232.68913147 285.83048706 -233.02200317 285.14349365 C-236.82219512 277.30158062 -240.62966965 269.46320613 -244.4375 261.625 C-244.79007874 260.89921753 -245.14265747 260.17343506 -245.50592041 259.42565918 C-247.29017331 255.75281468 -249.07450774 252.08000981 -250.85888672 248.40722656 C-252.99081833 244.01900572 -255.12241211 239.63062085 -257.25390625 235.2421875 C-257.60455643 234.52026215 -257.9552066 233.79833679 -258.31648254 233.05453491 C-260.08163431 229.4203676 -261.84668308 225.78615031 -263.61157227 222.15185547 C-267.22585203 214.70955241 -270.84191705 207.26812403 -274.4609375 199.828125 C-278.33088889 191.87166771 -282.19538277 183.91257864 -286.05426025 175.95074463 C-286.97226582 174.05720634 -287.89110303 172.16407348 -288.81005859 170.27099609 C-290.39849587 166.99521454 -291.98159417 163.71692139 -293.5625 160.4375 C-294.02188965 159.49165039 -294.4812793 158.54580078 -294.95458984 157.57128906 C-295.36273926 156.72147461 -295.77088867 155.87166016 -296.19140625 154.99609375 C-296.54404541 154.26575928 -296.89668457 153.5354248 -297.26000977 152.78295898 C-298 151 -298 151 -298 149 C-299.13179687 149.433125 -300.26359375 149.86625 -301.4296875 150.3125 C-302.9113927 150.87517286 -304.39316714 151.43766343 -305.875 152 C-306.62136719 152.28617188 -307.36773438 152.57234375 -308.13671875 152.8671875 C-313.7734375 155 -313.7734375 155 -316 155 C-307.73442653 173.59137606 -298.70030376 191.7732227 -289.53881836 209.93603516 C-284.22965211 220.47226743 -279.03222883 231.05060535 -273.96641541 241.70610046 C-270.11706276 249.79126053 -266.14062369 257.80691696 -262.1081543 265.80200195 C-256.36924568 277.18499254 -250.70728822 288.59435206 -245.26171875 300.12109375 C-240.59616088 309.94554643 -235.69237918 319.65019067 -230.81027222 329.36819458 C-226.13284217 338.68161873 -221.51585743 348.0141792 -217.0625 357.4375 C-215.80405782 360.07547569 -214.54165531 362.71147375 -213.27539062 365.34570312 C-212.3822205 367.20453652 -211.49324701 369.06538954 -210.60742188 370.92773438 C-209.2011309 373.86085556 -207.76146626 376.775266 -206.3125 379.6875 C-205.89685791 380.56784912 -205.48121582 381.44819824 -205.05297852 382.35522461 C-202.00586999 388.36329801 -199.29664731 390.56583283 -193 393 C-193.66 396.96 -194.32 400.92 -195 405 C-198.68710162 406.22903387 -199.36147956 405.68373687 -202.75 404 C-210.67328321 399.7397999 -214.65427857 395.11860156 -218.56640625 387.0234375 C-219.27535627 385.58112188 -219.98468466 384.1389922 -220.69433594 382.69702148 C-221.06836548 381.93324188 -221.44239502 381.16946228 -221.82775879 380.38253784 C-223.85533373 376.26156514 -225.92465192 372.1615943 -227.98828125 368.05859375 C-244.32483645 335.49714405 -244.32483645 335.49714405 -250.96020508 321.43530273 C-255.36661182 312.13692765 -260.00588692 302.95635369 -264.62411499 293.76202393 C-269.46414145 284.12217561 -274.21579239 274.45060096 -278.828125 264.69921875 C-283.10245213 255.70131088 -287.57942903 246.80778698 -292.05154419 237.90716553 C-296.72678583 228.59813451 -301.30637046 219.25365999 -305.75976562 209.8359375 C-310.55006914 199.75259996 -315.57897066 189.78838476 -320.60742188 179.82226562 C-320.94209473 179.15714966 -321.27676758 178.49203369 -321.62158203 177.8067627 C-322.53449413 175.99274536 -323.44978212 174.17992426 -324.36523438 172.3671875 C-326.02530977 168.94786853 -327.53084923 165.50455996 -329 162 C-335.1537882 163.98415975 -341.18551341 166.18164233 -347.19140625 168.57421875 C-348.02212143 168.90291458 -348.85283661 169.23161041 -349.70872498 169.57026672 C-352.32755548 170.60707645 -354.94504398 171.64722592 -357.5625 172.6875 C-359.35212537 173.3967069 -361.14183814 174.1056933 -362.93164062 174.81445312 C-367.28877384 176.54042407 -371.64470789 178.26938878 -376 180 C-371.53130381 189.07155975 -366.99068454 198.04848601 -361.9375 206.8125 C-360.82065348 208.76898292 -359.70481319 210.7260405 -358.58984375 212.68359375 C-358.01089355 213.69921387 -357.43194336 214.71483398 -356.83544922 215.76123047 C-353.51985958 221.61180405 -350.26078648 227.4937597 -347 233.375 C-346.06595337 235.05879761 -346.06595337 235.05879761 -345.11303711 236.77661133 C-343.94319918 238.88612652 -342.77520623 240.99666629 -341.609375 243.10839844 C-340.57123478 244.97364916 -339.52005175 246.83172851 -338.453125 248.68066406 C-337.76476562 249.87900879 -337.76476562 249.87900879 -337.0625 251.1015625 C-336.66160156 251.78814941 -336.26070312 252.47473633 -335.84765625 253.18212891 C-335 255 -335 255 -335 258 C-336.09332642 258.60303955 -336.09332642 258.60303955 -337.20874023 259.21826172 C-339.99705608 260.75768789 -342.78432427 262.29898895 -345.57077026 263.84179688 C-346.81211107 264.52885787 -348.05374798 265.21538417 -349.29568481 265.90136719 C-355.39282793 269.27076997 -361.48041219 272.64393698 -367.4375 276.2578125 C-368.2116626 276.72719238 -368.9858252 277.19657227 -369.78344727 277.68017578 C-371.18659201 278.53990609 -372.58333387 279.4102033 -373.97241211 280.29248047 C-378.42557028 283.02294351 -378.42557028 283.02294351 -380.9987793 282.92016602 C-383.94591632 281.56506544 -384.66695413 279.67980433 -386.1796875 276.83984375 C-386.77136719 275.74857178 -387.36304688 274.6572998 -387.97265625 273.53295898 C-388.43696045 272.65521317 -388.43696045 272.65521317 -388.91064453 271.75973511 C-390.22141813 269.28291224 -391.56132064 266.82230741 -392.90045166 264.36073303 C-393.59008156 263.09302739 -394.27834185 261.82457579 -394.965271 260.55540466 C-398.18871081 254.61101141 -401.57002823 248.76502204 -405 242.9375 C-406.15900331 240.96232709 -407.31785644 238.98706605 -408.4765625 237.01171875 C-409.05438477 236.0273584 -409.63220703 235.04299805 -410.22753906 234.02880859 C-413.29819355 228.78162683 -416.33760426 223.51648426 -419.375 218.25 C-420.3028833 216.64161255 -420.3028833 216.64161255 -421.24951172 215.00073242 C-424.52853138 209.31007127 -427.79529944 203.6126217 -431.046875 197.90625 C-431.38409576 197.3146257 -431.72131653 196.7230014 -432.0687561 196.1134491 C-434.78647185 191.3450859 -434.78647185 191.3450859 -436.12835693 188.98623657 C-439.66348343 182.77361077 -443.2293506 176.58385038 -446.8984375 170.44921875 C-447.50671387 169.43182617 -448.11499023 168.41443359 -448.74169922 167.36621094 C-449.8856311 165.46082259 -451.03539833 163.55892138 -452.19189453 161.66113281 C-452.69575684 160.82291992 -453.19961914 159.98470703 -453.71875 159.12109375 C-454.38293945 158.02945923 -454.38293945 158.02945923 -455.06054688 156.91577148 C-456 155 -456 155 -456 152 C-436.39578108 145.64167412 -416.76383163 139.37971087 -397.0970459 133.21783447 C-392.63214476 131.81880129 -388.16804872 130.41721041 -383.70410156 129.01513672 C-382.54668426 128.65161071 -382.54668426 128.65161071 -381.36588478 128.28074074 C-379.79000265 127.78576711 -378.21412389 127.29078273 -376.63824844 126.79578781 C-374.24607005 126.04441368 -371.85386007 125.29314019 -369.4616394 124.54190063 C-365.44114332 123.27932596 -361.4206821 122.01664032 -357.40024567 120.75387573 C-355.80830775 120.25387551 -354.21636344 119.75389564 -352.62441254 119.25393677 C-275.61897431 95.06948588 -198.62154729 70.75487882 -122.48730469 43.93017578 C-117.89312765 42.31227277 -113.29497761 40.70598931 -108.69573975 39.10253906 C-76.90071346 28.00908488 -45.36844033 16.24737933 -13.87203979 4.33836365 C-12.74403961 3.91217239 -11.61603943 3.48598114 -10.45385742 3.046875 C-9.46834396 2.67401367 -8.48283051 2.30115234 -7.467453 1.91699219 C-2.30918863 0 -2.30918863 0 0 0 Z " fill="#51B847" transform="translate(1081,237)"/>
<path d="M0 0 C2.44981792 3.06272742 4.22207899 6.19935843 5.96875 9.70703125 C6.53368164 10.83818359 7.09861328 11.96933594 7.68066406 13.13476562 C8.28730198 14.36058178 8.89374214 15.58649583 9.5 16.8125 C10.13494273 18.08926653 10.77003582 19.36595829 11.40527344 20.64257812 C15.53444747 28.95793726 19.56024271 37.31906476 23.53320312 45.71020508 C27.89316092 54.87160561 32.44717124 63.93348255 37 73 C42.3471406 83.64842517 47.64090099 94.3109919 52.72070312 105.09033203 C55.58468842 111.13202925 58.55153372 117.11657258 61.5625 123.0859375 C61.96738647 123.88980896 62.37227295 124.69368042 62.78942871 125.52191162 C64.81698863 129.54549163 66.85141475 133.56537004 68.89648438 137.58007812 C69.64996339 139.07150154 70.40322786 140.56303336 71.15625 142.0546875 C71.49954346 142.72261322 71.84283691 143.39053894 72.1965332 144.07870483 C74.62676168 148.91363988 76.40581504 153.83178231 78 159 C78.59941406 158.85570557 79.19882812 158.71141113 79.81640625 158.56274414 C82.3355246 157.9567677 84.85527834 157.35346275 87.375 156.75 C88.65117188 156.44255859 88.65117188 156.44255859 89.953125 156.12890625 C95.06241962 154.90711841 100.18001696 153.73504984 105.31123352 152.60955811 C114.55218029 150.58105609 123.74098347 148.38521397 132.91479492 146.07275391 C135.19707589 145.49758674 137.48029123 144.92625298 139.76367188 144.35546875 C152.90260189 141.06407046 165.97512435 137.61226484 178.96875 133.78515625 C193.02626475 129.65138856 207.16860612 125.83932527 221.31552505 122.02656937 C228.21559183 120.16588519 235.11370151 118.29795271 242.01171875 116.4296875 C242.80851736 116.21394388 243.60531597 115.99820026 244.42625999 115.77591896 C257.55026637 112.2211461 270.66236683 108.62415158 283.76953125 105.0078125 C285.59003585 104.50575845 287.41054162 104.00370868 289.23104858 103.50166321 C297.18216627 101.30842305 305.13263774 99.11289755 313.08125782 96.91062164 C316.37695853 95.99818208 319.67337319 95.0883415 322.96994591 94.17905807 C324.48623735 93.76017699 326.00221708 93.34016535 327.5178318 92.91884232 C337.95600262 90.01755066 348.43827002 87.41327016 359 85 C359 85.66 359 86.32 359 87 C338.29154779 97.46218644 317.57347248 107.83796556 296.44580078 117.43310547 C293.46900874 118.78672962 290.49675957 120.1497921 287.52622986 121.51708984 C209.14607459 157.56480023 127.50401982 185.3908451 -14.97770691 225.43852234 C-18.06512788 226.29572643 -21.15217711 227.15426674 -24.23925781 228.01269531 C-29.16741506 229.38256116 -34.09641544 230.7493245 -39.02664185 232.11172485 C-40.69989313 232.57412174 -42.37297242 233.03714154 -44.04586792 233.50082397 C-46.26031136 234.11393996 -48.4756543 234.72366394 -50.69140625 235.33203125 C-51.87935791 235.65921143 -53.06730957 235.9863916 -54.29125977 236.32348633 C-57 237 -57 237 -59 237 C-55.9092696 243.06166823 -52.81657851 249.12233336 -49.72265625 255.18237305 C-48.67502654 257.23488841 -47.62781141 259.28761545 -46.58105469 261.34057617 C-33.76068085 286.50947193 -33.76068085 286.50947193 -20.33956909 311.36149597 C-18.82871709 314.14238176 -18 315.77862483 -18 319 C-30.92859262 325.02949218 -43.87426037 331.01687058 -56.9375 336.75 C-58.39168335 337.39461182 -58.39168335 337.39461182 -59.87524414 338.05224609 C-60.77106201 338.44234863 -61.66687988 338.83245117 -62.58984375 339.234375 C-63.37222412 339.57694336 -64.15460449 339.91951172 -64.96069336 340.27246094 C-67 341 -67 341 -70 341 C-70.32572998 340.39341553 -70.65145996 339.78683105 -70.98706055 339.16186523 C-76.99482028 327.98783034 -83.04256713 316.84197547 -89.3125 305.8125 C-94.92320243 295.94227877 -100.42865999 286.01686665 -105.8996582 276.06884766 C-109.27097229 269.94012614 -112.65313708 263.81813805 -116.0703125 257.71484375 C-127.37509502 237.51069137 -127.37509502 237.51069137 -131.98828125 227.96337891 C-135.58799463 220.61265415 -139.71408737 213.54675133 -143.78564453 206.45019531 C-144.33075684 205.49854492 -144.87586914 204.54689453 -145.4375 203.56640625 C-145.93121094 202.70990479 -146.42492187 201.85340332 -146.93359375 200.97094727 C-148 199 -148 199 -148 198 C-147.22366211 197.92595947 -146.44732422 197.85191895 -145.64746094 197.77563477 C-85.8155028 191.91655389 -26.34403087 181.54221426 32.4375 169.0625 C33.11913586 168.91822067 33.80077171 168.77394135 34.5030632 168.62528992 C39.02384795 167.66815962 43.54188849 166.69889897 48.05859375 165.72265625 C49.78601807 165.35446526 49.78601807 165.35446526 51.54833984 164.97883606 C52.60674072 164.74742416 53.6651416 164.51601227 54.75561523 164.27758789 C55.67656479 164.07823135 56.59751434 163.87887482 57.54637146 163.67347717 C59.90376772 163.02641404 61.86376789 162.17547249 64 161 C57.30684653 146.87502982 50.45351953 132.84174122 43.4375 118.875 C38.24170357 108.53127628 33.12128096 98.16315947 28.17163086 87.69873047 C23.90063689 78.70775498 19.4273583 69.82097229 14.95852661 60.92730713 C10.04639212 51.14709187 5.22070153 41.3328821 0.54589844 31.4362793 C-2.21009099 25.60576632 -5.08182657 19.86929032 -8.171875 14.20703125 C-9 12 -9 12 -8.89453125 9.96484375 C-7.69373027 7.32727653 -6.03039505 5.74323338 -3.9375 3.75 C-3.20402344 3.04359375 -2.47054687 2.3371875 -1.71484375 1.609375 C-1.14894531 1.07828125 -0.58304688 0.5471875 0 0 Z " fill="#F37820" transform="translate(637,135)"/>
<path d="M0 0 C3.28148831 3.05271856 4.95378298 6.6115095 6.859375 10.609375 C7.42442245 11.77502991 7.42442245 11.77502991 8.00088501 12.9642334 C9.25621334 15.55681119 10.50292534 18.15344331 11.75 20.75 C12.6407226 22.59246881 13.53217639 24.43458429 14.42431641 26.27636719 C15.83210434 29.18307532 17.23934068 32.09003985 18.64431763 34.99810791 C23.37430014 44.78813428 28.15294926 54.55407086 32.93789673 64.31732178 C35.36261614 69.26541559 37.78468332 74.21480741 40.20703125 79.1640625 C40.68845078 80.14754669 41.1698703 81.13103088 41.6658783 82.14431763 C46.80152838 92.63619528 51.93238802 103.13041358 57.0625 113.625 C57.51429626 114.54921753 57.96609253 115.47343506 58.43157959 116.42565918 C60.70981174 121.08615512 62.98798021 125.74668219 65.26611328 130.40722656 C68.46807537 136.95765042 71.67039214 143.50790086 74.87280273 150.05810547 C77.16028454 154.73691646 79.44768339 159.41576797 81.73486328 164.09472656 C85.92314324 172.66261404 90.11217877 181.23012894 94.30432129 189.79612732 C105.25503793 212.17238371 116.17979889 234.56029076 127 257 C116.92612393 267.39693978 98.94950236 269.83732829 85.125 270.25 C73.08854764 270.11117125 61.49124379 267.74351224 50.0625 264.0625 C49.2991333 263.82192871 48.5357666 263.58135742 47.74926758 263.33349609 C42.58813407 261.56841537 40.49018469 259.76565236 37.95117188 255.0534668 C37.62697266 254.35906494 37.30277344 253.66466309 36.96875 252.94921875 C36.58050049 252.12631348 36.19225098 251.3034082 35.79223633 250.45556641 C35.36579834 249.54210449 34.93936035 248.62864258 34.5 247.6875 C29.35196226 236.79300188 24.09834614 225.95312963 18.8125 215.125 C17.15463152 211.72671679 15.49718755 208.32822663 13.83984375 204.9296875 C13.4299823 204.08932449 13.02012085 203.24896149 12.59783936 202.38313293 C8.67827679 194.34454033 4.77427567 186.29844859 0.875 178.25 C-0.43096103 175.55467367 -1.73695371 172.85936267 -3.04296875 170.1640625 C-3.36605011 169.49727478 -3.68913147 168.83048706 -4.02200317 168.14349365 C-7.82219512 160.30158062 -11.62966965 152.46320613 -15.4375 144.625 C-15.79007874 143.89921753 -16.14265747 143.17343506 -16.50592041 142.42565918 C-18.29017331 138.75281468 -20.07450774 135.08000981 -21.85888672 131.40722656 C-23.99081833 127.01900572 -26.12241282 122.63062119 -28.25390625 118.2421875 C-28.60451111 117.52035278 -28.95511597 116.79851807 -29.31634521 116.05480957 C-31.08225307 112.41907513 -32.84807397 108.78329849 -34.61376953 105.14746094 C-37.84629517 98.49141629 -41.07949083 91.83570052 -44.31556702 85.18138123 C-52.92528244 67.47714433 -61.50725134 49.76073795 -70 32 C-67.84501879 29.61980666 -65.93116584 28.32937011 -62.98535156 27.07397461 C-61.77461975 26.5516777 -61.77461975 26.5516777 -60.53942871 26.01882935 C-59.66532349 25.6503891 -58.79121826 25.28194885 -57.890625 24.90234375 C-56.97913696 24.51134491 -56.06764893 24.12034607 -55.12854004 23.71749878 C-52.17182026 22.45084866 -49.21097447 21.19416766 -46.25 19.9375 C-44.23568653 19.07650406 -42.22168878 18.21476911 -40.20800781 17.35229492 C-36.25973238 15.66188614 -32.31012877 13.97464698 -28.359375 12.29003906 C-21.80949591 9.49475947 -15.27695663 6.66085346 -8.75 3.8125 C-6.99480163 3.04815421 -5.23959468 2.28382812 -3.484375 1.51953125 C-1.75960937 0.76736328 -1.75960937 0.76736328 0 0 Z " fill="#175887" transform="translate(852,354)"/>
<path d="M0 0 C23 0 23 0 27.8125 3.6875 C28.92262514 5.42887277 29.98186554 7.20329213 31 9 C32.16521592 10.53233874 33.33198147 12.06384842 34.52954102 13.57104492 C35.83360555 15.21409179 37.10502662 16.8783222 38.37109375 18.55078125 C41.00631169 22.01817328 43.68286901 25.45167294 46.375 28.875 C47.05719604 29.74257935 47.05719604 29.74257935 47.75317383 30.62768555 C51.64780131 35.570421 55.58048791 40.48232751 59.5168457 45.3918457 C64.25449718 51.30567832 68.93748491 57.26148796 73.61035156 63.2265625 C76.05034101 66.34042114 78.49394592 69.45143846 80.9375 72.5625 C81.38617432 73.13427979 81.83484863 73.70605957 82.29711914 74.29516602 C84.848243 77.54393433 87.41942825 80.77428531 90 84 C90.33 56.28 90.66 28.56 91 0 C100.24 0 109.48 0 119 0 C119 47.19 119 94.38 119 143 C101 143 101 143 96.671875 139.6953125 C95.15234375 137.515625 95.15234375 137.515625 93.75 135.125 C92.62139713 133.45984822 91.49114118 131.79581587 90.359375 130.1328125 C89.53083008 128.84938965 89.53083008 128.84938965 88.68554688 127.54003906 C86.01492782 123.51554302 83.00528584 119.77704859 80 116 C78.83150694 114.50142231 77.66484222 113.00141723 76.5 111.5 C75.9225 110.7575 75.345 110.015 74.75 109.25 C68.33333333 101 61.91666667 92.75 55.5 84.5 C54.9215332 83.7562915 54.34306641 83.01258301 53.74707031 82.24633789 C52.59003382 80.75865025 51.43313096 79.27085868 50.27636719 77.78295898 C47.21349308 73.8436809 44.14776059 69.9066685 41.078125 65.97265625 C40.43746094 65.15087891 39.79679687 64.32910156 39.13671875 63.48242188 C37.90579873 61.90363316 36.67406552 60.32547802 35.44140625 58.74804688 C34.88839844 58.03841797 34.33539063 57.32878906 33.765625 56.59765625 C33.27868164 55.97383057 32.79173828 55.35000488 32.29003906 54.70727539 C31.13594686 53.17991604 30.06189314 51.59283971 29 50 C28.67 80.69 28.34 111.38 28 143 C18.76 143 9.52 143 0 143 C0 95.81 0 48.62 0 0 Z " fill="#175888" transform="translate(223,661)"/>
<path d="M0 0 C89.18617178 0 89.18617178 0 108.375 19.17578125 C124.39323213 36.40968278 127.90601752 57.42774833 127.17041016 80.15185547 C126.15627944 97.10149586 118.18773867 113.34995569 106 125 C105.484375 125.5465625 104.96875 126.093125 104.4375 126.65625 C79.04929383 151.51553521 27.32854859 143 0 143 C0 95.81 0 48.62 0 0 Z M27 26 C27 55.7 27 85.4 27 116 C60.07288088 117.77658282 60.07288088 117.77658282 88.48046875 103.7265625 C96.3158558 94.82362914 101.00572026 81.28097328 100.3203125 69.33203125 C98.45809524 55.7741812 94.97518895 43.19372423 83.93359375 34.34375 C66.75147209 22.15191411 48.25551028 26 27 26 Z " fill="#175888" transform="translate(437,661)"/>
<path d="M0 0 C10.23 0 20.46 0 31 0 C35.85426467 10.37700594 40.6723406 20.76928799 45.4375 31.1875 C45.77904114 31.93399811 46.12058228 32.68049622 46.47247314 33.44961548 C52.34743256 46.29954756 58.11503857 59.19504528 63.83520508 72.11450195 C69.79154821 85.56298189 75.82784096 98.9748948 81.88623047 112.37768555 C83.93493386 116.91366609 85.97348524 121.45406257 88 126 C88.31126831 126.69758423 88.62253662 127.39516846 88.9432373 128.1138916 C89.81013621 130.06519801 90.66850903 132.01998685 91.5234375 133.9765625 C92.00474121 135.07307129 92.48604492 136.16958008 92.98193359 137.29931641 C94 140 94 140 94 143 C84.1 143 74.2 143 64 143 C62.185 139.101875 60.37 135.20375 58.5 131.1875 C57.92572266 129.96184326 57.35144531 128.73618652 56.75976562 127.47338867 C56.31310547 126.5063501 55.86644531 125.53931152 55.40625 124.54296875 C54.94541016 123.55321045 54.48457031 122.56345215 54.00976562 121.54370117 C53 119 53 119 53 116 C28.58 116.33 4.16 116.66 -21 117 C-24.96 125.58 -28.92 134.16 -33 143 C-42.9 143 -52.8 143 -63 143 C-62.29012287 139.45061433 -61.78168274 137.1710836 -60.34863281 134.03710938 C-59.84035446 132.91511894 -59.84035446 132.91511894 -59.32180786 131.77046204 C-58.95264252 130.96964706 -58.58347717 130.16883209 -58.203125 129.34375 C-57.62556961 128.07406624 -57.62556961 128.07406624 -57.03634644 126.7787323 C-55.77894064 124.01698029 -54.51441335 121.25854977 -53.25 118.5 C-52.37684118 116.58466479 -51.50428662 114.66905401 -50.63232422 112.75317383 C-48.89235708 108.93052243 -47.15043938 105.10876992 -45.40722656 101.28759766 C-42.28362469 94.43404045 -39.19919356 87.56334958 -36.125 80.6875 C-35.61001953 79.53693115 -35.09503906 78.3863623 -34.56445312 77.20092773 C-33.54630124 74.9260551 -32.52839306 72.65107337 -31.51074219 70.37597656 C-29.45583263 65.78397764 -27.39692613 61.19377516 -25.33813477 56.60351562 C-16.87866195 37.74168723 -8.43974429 18.87066178 0 0 Z M15 32 C12.56205897 37.5265918 10.1269011 43.05439924 7.6940918 48.58325195 C6.86962273 50.45596769 6.04445103 52.32837427 5.21850586 54.20043945 C4.01742257 56.92313829 2.8190463 59.6470162 1.62109375 62.37109375 C1.26349472 63.18017685 0.90589569 63.98925995 0.53746033 64.82286072 C-3.12343208 73.16074897 -6.52919875 81.57091124 -10 90 C6.83 90 23.66 90 41 90 C38.00611092 82.21588838 35.02422127 74.52579317 31.6796875 66.90234375 C31.29434845 66.02018692 30.9090094 65.13803009 30.51199341 64.22914124 C29.70856659 62.39273854 28.90361986 60.55700008 28.09716797 58.72192383 C26.8647738 55.914202 25.64121776 53.10273179 24.41796875 50.29101562 C23.63073967 48.49455874 22.84299799 46.69832636 22.0546875 44.90234375 C21.6921286 44.06694565 21.3295697 43.23154755 20.95602417 42.37083435 C19.28725854 38.59394468 17.72638915 35.15729319 15 32 Z " fill="#175888" transform="translate(827,661)"/>
<path d="M0 0 C9.24 0 18.48 0 28 0 C28 47.19 28 94.38 28 143 C18.76 143 9.52 143 0 143 C0 95.81 0 48.62 0 0 Z " fill="#175888" transform="translate(654,661)"/>
<path d="M0 0 C9.24 0 18.48 0 28 0 C28 47.19 28 94.38 28 143 C18.76 143 9.52 143 0 143 C0 95.81 0 48.62 0 0 Z " fill="#175888" transform="translate(96,661)"/>
<path d="M0 0 C0.79096069 1.62736084 0.79096069 1.62736084 1.59790039 3.28759766 C14.71054524 30.26530795 14.71054524 30.26530795 28.0625 57.125 C32.67950826 66.30806018 37.19188256 75.53019469 41.58813477 84.82080078 C45.92880157 93.94578714 50.46566068 102.97026959 55 112 C60.35249867 122.65910591 65.64306426 133.33594991 70.73828125 144.12109375 C75.40383912 153.94554643 80.30762082 163.65019067 85.18972778 173.36819458 C89.86715783 182.68161873 94.48414257 192.0141792 98.9375 201.4375 C100.19594218 204.07547569 101.45834469 206.71147375 102.72460938 209.34570312 C103.6177795 211.20453652 104.50675299 213.06538954 105.39257812 214.92773438 C106.7988691 217.86085556 108.23853374 220.775266 109.6875 223.6875 C110.10314209 224.56784912 110.51878418 225.44819824 110.94702148 226.35522461 C113.99413001 232.36329801 116.70335269 234.56583283 123 237 C122.34 240.96 121.68 244.92 121 249 C117.31289838 250.22903387 116.63852044 249.68373687 113.25 248 C105.32671679 243.7397999 101.34572143 239.11860156 97.43359375 231.0234375 C96.72464373 229.58112188 96.01531534 228.1389922 95.30566406 226.69702148 C94.93163452 225.93324188 94.55760498 225.16946228 94.17224121 224.38253784 C92.14466627 220.26156514 90.07534808 216.1615943 88.01171875 212.05859375 C71.67516355 179.49714405 71.67516355 179.49714405 65.03979492 165.43530273 C60.63338818 156.13692765 55.99411308 146.95635369 51.37588501 137.76202393 C46.53585855 128.12217561 41.78420761 118.45060096 37.171875 108.69921875 C32.89754787 99.70131088 28.42057097 90.80778698 23.94845581 81.90716553 C19.27264762 72.59700642 14.68820006 63.25329975 10.24023438 53.83154297 C7.52633205 48.11180054 4.72840437 42.4400945 1.875 36.7890625 C1.51442505 36.07381409 1.1538501 35.35856567 0.78234863 34.62164307 C-1.00604782 31.07619935 -2.80129817 27.53449214 -4.60742188 23.99804688 C-7.92485289 17.4604026 -10.94968179 11.06738474 -13 4 C-8.39799961 1.50399979 -5.34048881 -0.12374775 0 0 Z " fill="#175887" transform="translate(765,393)"/>
<path d="M0 0 C2.44981792 3.06272742 4.22207899 6.19935843 5.96875 9.70703125 C6.53368164 10.83818359 7.09861328 11.96933594 7.68066406 13.13476562 C8.28730198 14.36058178 8.89374214 15.58649583 9.5 16.8125 C10.13494273 18.08926653 10.77003582 19.36595829 11.40527344 20.64257812 C15.53444747 28.95793726 19.56024271 37.31906476 23.53320312 45.71020508 C27.89316092 54.87160561 32.44717124 63.93348255 37 73 C42.34659521 83.64733907 47.63439444 94.31110119 52.72070312 105.0859375 C57.93163471 116.06469411 63.42724502 126.90415822 68.89648438 137.75585938 C69.27699951 138.51265991 69.65751465 139.26946045 70.04956055 140.04919434 C70.76341925 141.4688015 71.47895327 142.88756805 72.1965332 144.30529785 C78 155.85398104 78 155.85398104 78 160 C73.45240084 161.23324723 69.71865769 162.05466946 65 162 C64.54794189 161.09515869 64.09588379 160.19031738 63.63012695 159.25805664 C60.13762902 152.26942739 56.64125661 145.28277227 53.137146 138.29995728 C34.61326155 101.38298182 34.61326155 101.38298182 27.91870117 87.19311523 C23.73921766 78.36623956 19.34177397 69.65068957 14.95715332 60.92456055 C10.04547595 51.14526192 5.22026399 41.33195583 0.54589844 31.4362793 C-2.21009099 25.60576632 -5.08182657 19.86929032 -8.171875 14.20703125 C-9 12 -9 12 -8.89453125 9.96484375 C-7.69373027 7.32727653 -6.03039505 5.74323338 -3.9375 3.75 C-3.20402344 3.04359375 -2.47054687 2.3371875 -1.71484375 1.609375 C-1.14894531 1.07828125 -0.58304688 0.5471875 0 0 Z " fill="#175887" transform="translate(637,135)"/>
</svg>
