<?xml version="1.0" encoding="UTF-8"?>
<svg version="1.1" xmlns="http://www.w3.org/2000/svg" width="1254" height="1254">
<path d="M0 0 C413.82 0 827.64 0 1254 0 C1254 413.82 1254 827.64 1254 1254 C840.18 1254 426.36 1254 0 1254 C0 840.18 0 426.36 0 0 Z " fill="#FDFDFD" transform="translate(0,0)"/>
<path d="M0 0 C12.73977149 9.54990598 18.83553454 24.19677465 25.73828125 38.15625 C26.39749738 39.48098875 27.0571454 40.80551266 27.7171936 42.12983704 C29.4363299 45.58124118 31.15097673 49.03485276 32.86419678 52.48919678 C35.92108852 58.65168494 38.98438519 64.81098638 42.05078125 70.96875 C42.37932854 71.62885952 42.70787582 72.28896904 43.04637909 72.96908188 C47.33095235 81.57213452 51.69579021 90.12584974 56.20574951 98.6133728 C63.80305612 112.91585217 70.79530693 127.53207711 77.90234375 142.08203125 C79.93050295 146.23200883 81.95925605 150.38169577 83.98828125 154.53125 C84.51339294 155.60523041 85.03850464 156.67921082 85.57952881 157.78573608 C89.27190085 165.33483466 92.97309612 172.879572 96.67952347 180.42177773 C97.56378736 182.22123313 98.44786251 184.02078115 99.33187866 185.82035828 C102.76442761 192.80779164 102.76442761 192.80779164 106.19989014 199.79379272 C111.60495428 210.77931044 116.98638514 221.76699125 122.12304688 232.88085938 C123.93036681 236.75943332 125.83154185 240.58400253 127.77734375 244.39453125 C129.63348405 248.03315548 131.42385004 251.65259791 133.03125 255.41015625 C134.88069466 259.71747906 137.01003987 263.84643452 139.18554688 267.99609375 C140.64243736 270.84153444 141.52734375 272.64882606 141.52734375 275.89453125 C140.82351563 276.0553418 140.1196875 276.21615234 139.39453125 276.38183594 C136.10508803 277.13441417 132.81621779 277.88946966 129.52734375 278.64453125 C128.42132812 278.8971875 127.3153125 279.14984375 126.17578125 279.41015625 C119.35066649 280.97914815 112.54820015 282.62491551 105.75691223 284.33348083 C98.50166497 286.15726618 91.23533745 287.9325562 83.95874023 289.66918945 C82.43876659 290.03351346 80.9195784 290.40112735 79.40112305 290.77172852 C77.16762143 291.31644462 74.93185548 291.85074184 72.6953125 292.3828125 C71.67826485 292.63421745 71.67826485 292.63421745 70.64067078 292.89070129 C67.39734516 293.65058426 65.75717739 293.97114246 62.52734375 292.89453125 C60.94018555 290.21191406 60.94018555 290.21191406 59.2265625 286.59765625 C58.75002983 285.60424225 58.75002983 285.60424225 58.26387024 284.59075928 C57.23788662 282.44646053 56.22606356 280.29582571 55.21484375 278.14453125 C54.57712426 276.80423394 53.9384593 275.46438605 53.29882812 274.125 C51.87142604 271.13285913 50.44721379 268.13922344 49.0246582 265.14477539 C48.1923804 263.39461775 47.35993578 261.64453943 46.52734375 259.89453125 C46.09795502 258.9915329 45.66856628 258.08853455 45.22616577 257.15817261 C33.82087613 233.22770388 21.96503303 209.51710139 10.12465 185.79989433 C6.63632218 178.81237119 3.15359184 171.82212279 -0.32153708 164.8280254 C-2.8003226 159.84028352 -5.28525052 154.8556324 -7.77478594 149.87324756 C-9.24918031 146.92212373 -10.72015403 143.96938051 -12.18614388 141.01407051 C-13.80938689 137.74328575 -15.44261709 134.47767747 -17.07836914 131.21313477 C-17.55268875 130.25168549 -18.02700836 129.29023621 -18.51570129 128.2996521 C-22.11405691 121.15853775 -25.5241195 114.69989716 -33.47265625 111.89453125 C-38.01116931 111.07596176 -40.42802066 111.21355241 -44.37890625 113.7890625 C-48.4971182 117.44410462 -50.582715 122.20673206 -52.97265625 127.08203125 C-54.02674747 129.16762721 -55.08281222 131.25222664 -56.140625 133.3359375 C-56.95926025 134.95846436 -56.95926025 134.95846436 -57.79443359 136.61376953 C-60.5321852 141.96580708 -63.4127552 147.23891885 -66.28515625 152.51953125 C-71.66506982 162.45139223 -76.8896112 172.45453099 -82.05133057 182.50064087 C-86.14552817 190.4645937 -90.32997871 198.36858157 -94.66015625 206.20703125 C-99.37503892 214.74881651 -103.79039375 223.41440317 -108.12060547 232.15673828 C-111.47981654 238.93324793 -114.93334791 245.64855472 -118.47753906 252.32983398 C-122.31758356 259.57561424 -126.08569877 266.85801393 -129.84765625 274.14453125 C-134.88715374 283.90228524 -139.94178265 293.65182398 -145.0300293 303.38427734 C-147.72023025 308.53094722 -150.40071261 313.68245231 -153.0703125 318.83984375 C-153.6689209 319.99516602 -154.2675293 321.15048828 -154.88427734 322.34082031 C-156.04890106 324.58937345 -157.21203939 326.8386967 -158.37353516 329.08886719 C-159.15543213 330.59755371 -159.15543213 330.59755371 -159.953125 332.13671875 C-160.41614014 333.03245605 -160.87915527 333.92819336 -161.35620117 334.85107422 C-162.47265625 336.89453125 -162.47265625 336.89453125 -163.47265625 337.89453125 C-166.52072495 338.3413476 -169.55792392 338.7321058 -172.6171875 339.0859375 C-173.53851974 339.19550278 -174.45985199 339.30506805 -175.40910339 339.41795349 C-177.36339427 339.6494304 -179.31793769 339.87878337 -181.27270508 340.10620117 C-184.26250446 340.45439322 -187.25140011 340.80964418 -190.24023438 341.16601562 C-192.13666916 341.3897437 -194.03315206 341.61306428 -195.9296875 341.8359375 C-196.82460403 341.94216934 -197.71952057 342.04840118 -198.64155579 342.15785217 C-199.47889755 342.25472824 -200.31623932 342.35160431 -201.17895508 342.45141602 C-201.91318192 342.53722427 -202.64740875 342.62303253 -203.40388489 342.71144104 C-205.41984937 342.88985774 -207.44881206 342.89453125 -209.47265625 342.89453125 C-208.90160156 343.85488281 -208.33054687 344.81523438 -207.7421875 345.8046875 C-205.50279436 349.58026686 -203.29020122 353.37117182 -201.07861328 357.16308594 C-199.35282735 360.09833876 -197.59785412 363.01518736 -195.84375 365.93359375 C-194.63576965 367.98251365 -193.42872806 370.03198733 -192.22265625 372.08203125 C-191.32703979 373.55071655 -191.32703979 373.55071655 -190.41333008 375.04907227 C-189.87087646 375.98162842 -189.32842285 376.91418457 -188.76953125 377.875 C-188.27807617 378.69895264 -187.78662109 379.52290527 -187.28027344 380.37182617 C-185.88428153 384.73240186 -187.98480009 387.87160978 -189.87036133 391.82519531 C-190.40556396 392.84323242 -190.9407666 393.86126953 -191.4921875 394.91015625 C-192.39771362 396.64386475 -192.39771362 396.64386475 -193.3215332 398.41259766 C-193.64143219 399.02049133 -193.96133118 399.62838501 -194.29092407 400.25469971 C-195.99657598 403.49679431 -197.68760898 406.74649377 -199.37890625 409.99609375 C-199.89587822 410.98849564 -199.89587822 410.98849564 -200.42329407 412.00094604 C-204.28843429 419.43635203 -208.02266684 426.9357468 -211.73168945 434.45019531 C-214.79799587 440.63554178 -217.97187219 446.7553248 -221.203125 452.85546875 C-226.63247483 463.11664668 -231.81322638 473.49568035 -236.97265625 483.89453125 C-241.98640232 493.99975589 -247.00990737 504.09108924 -252.30078125 514.0546875 C-258.65914965 526.0371023 -264.67485339 538.19084341 -270.72265625 550.33203125 C-271.87871573 552.64918361 -273.03496481 554.96624137 -274.19140625 557.28320312 C-276.31659815 561.54165501 -278.44067707 565.8006578 -280.56347656 570.06030273 C-282.60243421 574.1503209 -284.64258169 578.23974106 -286.68481445 582.328125 C-287.15893265 583.2773584 -287.63305084 584.2265918 -288.12153625 585.20458984 C-303.36501307 615.55278956 -319.94250213 637.13546374 -352.9609375 648.83203125 C-379.29271047 656.7989303 -405.71609365 654.75828674 -432.47265625 649.89453125 C-433.57770508 649.70197754 -434.68275391 649.50942383 -435.82128906 649.31103516 C-482.06047271 641.23570647 -527.14415189 625.06390202 -567.47265625 600.89453125 C-568.10896973 600.51651367 -568.7452832 600.13849609 -569.40087891 599.74902344 C-585.42670961 590.17411689 -600.50859597 579.28466075 -614.47265625 566.89453125 C-615.38402344 566.09402344 -616.29539062 565.29351563 -617.234375 564.46875 C-631.82472125 551.38424143 -645.82905289 537.68832987 -657.47265625 521.89453125 C-658.29881768 520.84145255 -659.12957681 519.79196497 -659.96484375 518.74609375 C-670.55958839 505.43569889 -679.24913137 491.00472176 -687.30712891 476.04931641 C-688.4358787 473.96252427 -689.58262138 471.88666461 -690.734375 469.8125 C-694.16353038 463.58728801 -697.29264982 457.44087767 -699.48828125 450.65234375 C-700.3567416 448.21927626 -701.34115367 445.93111655 -702.41015625 443.58203125 C-718.36664332 408.07188761 -723.69046276 366.78762674 -723.72265625 328.26953125 C-723.72366333 327.42303009 -723.72467041 326.57652893 -723.72570801 325.70437622 C-723.71314241 309.945457 -722.70677891 294.51151054 -720.47265625 278.89453125 C-720.33875488 277.93417969 -720.20485352 276.97382813 -720.06689453 275.984375 C-715.17380741 242.2487634 -702.87660069 210.12049334 -687.47265625 179.89453125 C-687.12041992 179.19730957 -686.76818359 178.50008789 -686.40527344 177.78173828 C-678.72254811 162.62402401 -669.72529826 148.45190836 -659.47265625 134.89453125 C-658.71597656 133.88261719 -657.95929688 132.87070312 -657.1796875 131.828125 C-642.54411822 112.40836057 -626.0258881 93.64358395 -607.47265625 77.89453125 C-606.56386719 77.09660156 -605.65507813 76.29867187 -604.71875 75.4765625 C-571.96189086 46.9109406 -532.44111113 25.99546193 -491.47265625 11.89453125 C-490.73289551 11.63575195 -489.99313477 11.37697266 -489.23095703 11.11035156 C-444.9580888 -4.23394584 -399.97104076 -6.25927171 -353.67578125 -6.34375 C-351.76752459 -6.34780827 -349.85926806 -6.35192547 -347.95101166 -6.35610008 C-339.00176681 -6.37504373 -330.05252979 -6.38931244 -321.10326886 -6.39771205 C-310.82064123 -6.40752926 -300.53822626 -6.43400998 -290.25567365 -6.47421294 C-282.26281726 -6.50438194 -274.27002207 -6.51918052 -266.27710986 -6.52249306 C-261.52012489 -6.52483678 -256.7633701 -6.53371382 -252.00644684 -6.55895424 C-247.5442909 -6.58226282 -243.08251665 -6.58645715 -238.62031555 -6.57619286 C-236.98893206 -6.57569856 -235.35752945 -6.58198768 -233.72620392 -6.5957489 C-221.85593383 -6.69025513 -213.23696924 -5.36676328 -204.26171875 2.96484375 C-201.46712059 5.97910465 -199.32525772 9.23241207 -197.47265625 12.89453125 C-197.10527344 13.60867187 -196.73789062 14.3228125 -196.359375 15.05859375 C-195.09470218 19.10331828 -195.14367183 22.93111257 -195.16015625 27.14453125 C-195.14404297 27.95277344 -195.12792969 28.76101562 -195.11132812 29.59375 C-195.10392138 38.85217637 -197.69812245 46.94985816 -204.2265625 53.7109375 C-213.50399161 62.40739258 -222.74638917 62.32560891 -234.86157227 62.26342773 C-236.52672065 62.2658987 -238.19186748 62.26974011 -239.85700989 62.27484131 C-243.43641409 62.28316142 -247.01565906 62.28238584 -250.59506416 62.2746563 C-256.28772844 62.2630002 -261.98019159 62.27530334 -267.6728363 62.29127502 C-281.83206962 62.32737181 -295.99129853 62.33372454 -310.15057373 62.33117676 C-321.12363362 62.3294519 -332.09652706 62.33701726 -343.06954139 62.37115532 C-347.78493595 62.38500695 -352.50005342 62.39129213 -357.21545601 62.37811089 C-408.19496391 62.24254372 -457.28449109 70.31250112 -503.47265625 92.89453125 C-504.9112885 93.58108516 -506.35008776 94.26728922 -507.7890625 94.953125 C-531.33206823 106.31292131 -552.69949566 121.76993459 -571.47265625 139.89453125 C-572.1490918 140.54373535 -572.82552734 141.19293945 -573.52246094 141.86181641 C-582.45286459 150.47140348 -590.84848531 159.17903718 -598.203125 169.18066406 C-599.48773594 170.91488883 -600.80440482 172.62032296 -602.12890625 174.32421875 C-617.97357588 194.95714412 -632.31697243 219.78003006 -639.47265625 244.89453125 C-639.87411865 246.3017041 -639.87411865 246.3017041 -640.28369141 247.73730469 C-658.9345648 314.59585794 -652.53594725 386.26951351 -618.4140625 447.3659668 C-606.51016346 468.11559251 -591.97893289 486.62495858 -575.47265625 503.89453125 C-574.41304687 505.01601562 -574.41304687 505.01601562 -573.33203125 506.16015625 C-568.1062172 511.55591548 -562.38311375 516.27172811 -556.47265625 520.89453125 C-555.59843018 521.58337402 -555.59843018 521.58337402 -554.70654297 522.28613281 C-540.83915265 533.15467725 -526.15080725 542.08083501 -510.59765625 550.33203125 C-509.67138428 550.82832031 -508.7451123 551.32460938 -507.79077148 551.8359375 C-502.03810684 554.82906092 -496.30482695 557.08688979 -490.12402344 559.04321289 C-487.17467513 559.99020898 -484.36424555 561.13526744 -481.53515625 562.39453125 C-467.05336312 568.51783159 -452.17454436 571.06617261 -436.73046875 573.46484375 C-434.47265625 573.89453125 -434.47265625 573.89453125 -432.47265625 574.89453125 C-408.45269298 578.41780209 -384.2278365 579.77446143 -363.80273438 564.65869141 C-349.36771962 553.11686352 -341.15700136 538.17796573 -333.00488281 521.93066406 C-330.54592293 517.05819352 -328.00656803 512.22831532 -325.47265625 507.39453125 C-324.46965148 505.47286529 -323.46704759 503.55099004 -322.46484375 501.62890625 C-320.49181881 497.84716814 -318.5177956 494.06595368 -316.54296875 490.28515625 C-311.12698822 479.91397651 -305.72838348 469.53404938 -300.34765625 459.14453125 C-296.43483736 451.58965482 -292.50960319 444.04217527 -288.53515625 436.51953125 C-284.38787664 428.66679623 -280.29943851 420.78402942 -276.22265625 412.89453125 C-275.90455994 412.27896362 -275.58646362 411.663396 -275.25872803 411.0291748 C-273.96450928 408.52445155 -272.67043694 406.01965272 -271.37652588 403.51477051 C-255.70615551 373.17988818 -255.70615551 373.17988818 -248.16113281 358.89868164 C-245.92680439 354.6674565 -243.70885302 350.42833911 -241.5078125 346.1796875 C-237.02765538 337.5375622 -232.55213952 328.91021076 -227.72265625 320.45703125 C-224.57419163 314.94063286 -221.64442889 309.35715058 -218.83837891 303.65966797 C-211.25983766 288.30845175 -203.22323373 273.17488236 -195.23095703 258.03588867 C-191.78449765 251.50276512 -188.37656231 244.94991002 -184.97265625 238.39453125 C-180.73918061 230.24226342 -176.48729116 222.10038221 -172.19995117 213.97631836 C-170.02632518 209.8549146 -167.86316447 205.72840895 -165.71484375 201.59375 C-160.35400063 191.27774918 -154.92738001 181.00283161 -149.41015625 170.76953125 C-143.35562544 159.52676008 -137.47851459 148.19867953 -131.66015625 136.83203125 C-131.24865326 136.02821014 -130.83715027 135.22438904 -130.41317749 134.39620972 C-129.59780368 132.80332975 -128.78244989 131.21043953 -127.96711731 129.61753845 C-127.5757811 128.85300858 -127.18444489 128.0884787 -126.78125 127.30078125 C-126.39784958 126.55167984 -126.01444916 125.80257843 -125.61943054 125.03077698 C-118.4259106 110.98414061 -110.98128655 97.07330128 -103.51098633 83.17236328 C-99.96082411 76.56251329 -96.43622725 69.94007374 -92.94140625 63.30078125 C-92.17855291 61.85436539 -91.41561395 60.40799468 -90.65258789 58.96166992 C-89.54332845 56.85904113 -88.43561548 54.75568745 -87.33346558 52.64932251 C-83.74727369 45.79625077 -80.11398389 39.11051054 -75.70385742 32.73950195 C-74.07731636 30.30210936 -72.86258568 27.7502794 -71.66015625 25.08203125 C-63.80564759 9.02528828 -52.64557613 -1.15695398 -36.47265625 -8.10546875 C-23.66998012 -12.25247495 -10.57862811 -7.20925158 0 0 Z " fill="#013C7D" transform="translate(798.47265625,168.10546875)"/>
<path d="M0 0 C10.48754915 4.33967551 14.69437021 14.81116789 19.47338867 24.47680664 C20.09613103 25.72178145 20.71957456 26.96640575 21.34365845 28.21070862 C23.02686157 31.57172533 24.70013737 34.93759417 26.37150741 38.30450749 C28.13715157 41.85726792 29.91168973 45.40558166 31.68513489 48.95445251 C34.66853429 54.92768947 37.64601775 60.9038433 40.61938477 66.88208008 C44.40008931 74.48350056 48.1897291 82.08042648 51.98258495 89.67578983 C55.27907786 96.27718355 58.5720486 102.88033299 61.86413407 109.48392558 C62.56160268 110.88287441 63.25917809 112.28177 63.95686507 113.68060994 C75.25010888 136.32356702 86.26589325 159.08621912 97 182 C108.26968468 179.71483724 119.48787609 177.23209484 130.6875 174.625 C131.84137207 174.35743896 132.99524414 174.08987793 134.18408203 173.81420898 C145.01074834 171.27931803 155.79211181 168.5679169 166.57632446 165.85919189 C172.68518159 164.32613759 178.79584968 162.80032702 184.90625 161.2734375 C187.48959115 160.62763539 190.07292537 159.98180566 192.65625 159.3359375 C193.95963493 159.0100892 195.26302035 158.68424285 196.56640625 158.35839844 C197.87760417 158.03059896 199.18880208 157.70279948 200.5 157.375 C201.82552083 157.04361979 203.15104167 156.71223958 204.4765625 156.38085938 C205.13177132 156.21705465 205.78698013 156.05324993 206.46204376 155.88448143 C207.77280455 155.55679629 209.08357009 155.22913015 210.39434052 154.90148354 C213.56480459 154.10895482 216.73517066 153.31603769 219.90539551 152.52255249 C224.88770634 151.27579106 229.86995176 150.02920418 234.85742188 148.80322266 C243.12552123 146.76765938 251.32587355 144.54322253 259.51000977 142.19525146 C269.79984138 139.24659802 280.09802648 136.4061266 290.5 133.875 C299.42762722 131.70148665 308.23518026 129.23358225 317.04150391 126.61376953 C325.03908168 124.24591854 333.08091992 122.09564626 341.16430664 120.04101562 C342.04594482 119.81607422 342.92758301 119.59113281 343.8359375 119.359375 C344.68768555 119.14216797 345.53943359 118.92496094 346.41699219 118.70117188 C349.94830292 117.74257788 353.42136252 116.61657654 356.89306641 115.46191406 C359 115 359 115 362 116 C312.42114006 141.76816371 262.11631032 165.77474983 210 186 C208.90800293 186.42684082 207.81600586 186.85368164 206.69091797 187.29345703 C190.37616477 193.66919704 173.95288369 199.73748542 157.49267578 205.72460938 C154.26062422 206.90483008 151.03367833 208.09777144 147.80859375 209.296875 C138.91178537 212.59341968 130.03802913 215.70123729 120.90478516 218.27880859 C116.54950166 219.51376413 112.31168712 220.92784944 108.0625 222.5 C101.9463143 224.74589729 95.76989228 226.53840769 89.47875977 228.21289062 C85.0716603 229.3914464 80.74685754 230.71252168 76.42700195 232.17871094 C71.71740993 233.77242058 66.98227935 235.28778704 62.25 236.8125 C61.27417969 237.13025391 60.29835938 237.44800781 59.29296875 237.77539062 C50.81912586 240.50180405 42.27492976 242.94478463 33.71191406 245.37329102 C27.89852714 247.02381827 22.09729844 248.71473159 16.296875 250.41015625 C-11.20836157 258.43093842 -38.78661447 266.08246516 -66.51716614 273.28767395 C-67.73952217 273.60619576 -67.73952217 273.60619576 -68.98657227 273.93115234 C-70.04703514 274.20637222 -70.04703514 274.20637222 -71.12892151 274.4871521 C-72.76864334 274.93658696 -74.38704884 275.46234961 -76 276 C-74.56010124 280.80074284 -72.51506333 285.0992543 -70.1484375 289.49609375 C-69.77071198 290.20669449 -69.39298645 290.91729523 -69.0038147 291.64942932 C-67.79852996 293.91445329 -66.58690102 296.17601046 -65.375 298.4375 C-64.58421167 299.92099816 -63.79384363 301.40472043 -63.00390625 302.88867188 C-61.43886277 305.82696627 -59.87071189 308.76356698 -58.29980469 311.69873047 C-56.78544666 314.52866807 -55.27562531 317.36093788 -53.77050781 320.19580078 C-53.23751572 321.19873924 -53.23751572 321.19873924 -52.6937561 322.22193909 C-51.73223677 324.03183017 -50.77160216 325.84219119 -49.81103516 327.65258789 C-48.50994492 330.05744746 -47.16978788 332.3945821 -45.77099609 334.73999023 C-44 338 -44 338 -44 341 C-43.34 341 -42.68 341 -42 341 C-40.16002803 344.45484098 -38.32916118 347.9144248 -36.5 351.375 C-35.97535156 352.35984375 -35.45070313 353.3446875 -34.91015625 354.359375 C-34.41386719 355.30039062 -33.91757812 356.24140625 -33.40625 357.2109375 C-32.94541016 358.08024902 -32.48457031 358.94956055 -32.00976562 359.84521484 C-31 362 -31 362 -31 364 C-31.58040039 364.26514404 -32.16080078 364.53028809 -32.75878906 364.8034668 C-34.54416471 365.61947458 -36.32929469 366.43601993 -38.11425781 367.25292969 C-40.22758226 368.21975423 -42.34152836 369.18522097 -44.45605469 370.14941406 C-49.90736135 372.64112275 -55.34561922 375.15321106 -60.75396729 377.73664856 C-63.29629433 378.95093294 -65.84242313 380.15714129 -68.3885498 381.36343384 C-69.62730662 381.95342538 -70.86406335 382.54763523 -72.09875488 383.14608765 C-73.83682555 383.98811044 -75.58234448 384.81470586 -77.328125 385.640625 C-78.82714355 386.36040527 -78.82714355 386.36040527 -80.35644531 387.09472656 C-83.17583748 388.06021476 -84.31178142 388.22422272 -87 387 C-88.83203125 384.53515625 -88.83203125 384.53515625 -90.8125 381.0625 C-91.18866455 380.4120874 -91.5648291 379.7616748 -91.95239258 379.09155273 C-92.81790126 377.5915757 -93.67740128 376.08812225 -94.53222656 374.58203125 C-96.15110235 371.73418854 -97.78899099 368.89782584 -99.4296875 366.0625 C-101.99235568 361.6319811 -104.5490877 357.19811775 -107.1015625 352.76171875 C-112.45014636 343.47395724 -117.85838119 334.2211734 -123.26611328 324.96777344 C-126.76452666 318.9797823 -130.25784196 312.98881319 -133.75024414 306.99731445 C-136.66023589 302.00603098 -139.57497884 297.01764904 -142.5 292.03515625 C-149.76267205 279.64994161 -156.86193045 267.18411059 -163.84765625 254.640625 C-167.05511668 248.88507418 -170.33076353 243.17143837 -173.64453125 237.4765625 C-175 235 -175 235 -176 232 C-174.07144649 231.69308573 -172.14240742 231.38905267 -170.21166992 231.09619141 C-168.44729422 230.81742171 -166.68689409 230.51254558 -164.9309082 230.18505859 C-159.60214898 229.25915405 -155.06527474 228.9945325 -149.69140625 229.71484375 C-142.26503314 230.38165825 -136.28904489 230.40523824 -130 226 C-121.27861601 215.63805686 -116.14039458 201.94106191 -110.81097412 189.63067627 C-106.994971 180.8165177 -102.62690889 172.37226938 -98.04742432 163.93493652 C-96.67197762 161.394035 -95.33147742 158.83558283 -93.99609375 156.2734375 C-93.36417114 155.06457886 -93.36417114 155.06457886 -92.71948242 153.83129883 C-92.29642822 153.02072021 -91.87337402 152.2101416 -91.4375 151.375 C-90.95192627 150.44518311 -90.46635254 149.51536621 -89.96606445 148.55737305 C-86.95240504 142.77617207 -83.96032827 136.98426253 -80.984375 131.18359375 C-73.6670765 116.92489371 -66.28395239 102.71614251 -58.67138672 88.61206055 C-53.7712534 79.50672427 -49.02618283 70.32785461 -44.3125 61.125 C-39.02285455 50.79934659 -33.66694727 40.52400449 -28.04541016 30.37353516 C-25.79655508 26.3124274 -23.59525447 22.24253751 -21.51171875 18.09375 C-21.11726562 17.31644531 -20.7228125 16.53914063 -20.31640625 15.73828125 C-19.59867096 14.31522823 -18.89281523 12.88607339 -18.203125 11.44921875 C-14.42272032 3.99468582 -8.8746517 -1.99942746 0 0 Z " fill="#FD6E05" transform="translate(765,279)"/>
<path d="M0 0 C-14.61230133 8.57640584 -29.27647363 17.04940187 -44.05078125 25.34375 C-47.08757805 27.0491829 -50.12196036 28.758861 -53.15625 30.46875 C-66.31726598 37.87451589 -79.54294485 45.15014178 -92.84423828 52.30078125 C-96.14820657 54.07980177 -99.44724934 55.86774825 -102.74609375 57.65625 C-116.14272871 64.89833367 -129.61483437 71.91305122 -143.29199219 78.60913086 C-144.40477539 79.15706299 -145.51755859 79.70499512 -146.6640625 80.26953125 C-147.64842285 80.75010986 -148.6327832 81.23068848 -149.64697266 81.72583008 C-152.09917716 82.90911581 -152.09917716 82.90911581 -154 85 C-155.42551697 85.6253464 -156.87540363 86.19586078 -158.3359375 86.734375 C-164.6365033 89.18045042 -170.6025349 92.19304856 -176.625 95.25 C-177.76710938 95.82484131 -178.90921875 96.39968262 -180.0859375 96.99194336 C-185.02867452 99.48043532 -189.9648474 101.98171606 -194.8984375 104.48828125 C-200.91776861 107.53776178 -206.89385807 110.47409738 -213.21484375 112.859375 C-217.99945598 114.81885154 -222.63726702 117.10479907 -227.28881836 119.359375 C-232.79074559 122 -232.79074559 122 -235 122 C-232.69171353 126.93947923 -230.37876961 131.87675924 -228.0625 136.8125 C-227.53136597 137.94437744 -227.53136597 137.94437744 -226.98950195 139.09912109 C-221.06982891 151.70280963 -215.01535851 164.23650969 -208.9019165 176.74713135 C-204.66976738 185.41450229 -200.49618556 194.08680627 -196.67936707 202.94749451 C-194.70003033 207.50759149 -192.5626798 211.95695272 -190.30859375 216.38671875 C-185.93381086 225.0645208 -181.76847474 233.83498442 -177.625 242.625 C-176.84573594 244.2744251 -176.06627173 245.92375564 -175.28662109 247.57299805 C-173.6694374 250.99440976 -172.05310153 254.41621982 -170.4375 257.83837891 C-166.50568986 266.16577836 -162.56591186 274.48940493 -158.625 282.8125 C-158.24598541 283.61320923 -157.86697083 284.41391846 -157.47647095 285.2388916 C-152.95090645 294.79842382 -148.40344854 304.34664581 -143.8125 313.875 C-139.55451292 322.71994293 -135.34505583 331.5870378 -131.17025757 340.47149658 C-130.53099691 341.83164507 -129.89107849 343.19148468 -129.25039673 344.55096436 C-125.52730251 352.45499695 -121.90337225 360.39123241 -118.45817566 368.4209137 C-116.02161141 374.06815919 -113.28937319 379.54174695 -110.48046875 385.01171875 C-107.48137347 391.06530156 -105.98369162 395.35946342 -108 402 C-113.71637912 408.74239589 -122.55577454 410.05513203 -131 411 C-146.55766608 411.68683898 -161.65076197 411.51846629 -176.4375 406.25 C-177.088396 406.02231934 -177.73929199 405.79463867 -178.40991211 405.56005859 C-187.48385482 402.06209276 -191.99473855 396.22323449 -196.1875 387.6875 C-196.67597412 386.72328125 -197.16444824 385.7590625 -197.66772461 384.765625 C-199.46764963 381.18799959 -201.23556823 377.59519636 -203 374 C-203.77428293 372.42783255 -204.54870448 370.85573336 -205.32324219 369.28369141 C-213.54598251 352.57783158 -221.68162678 335.82971063 -229.68188477 319.01611328 C-234.1129972 309.72309779 -238.61493383 300.46444031 -243.12133789 291.20776367 C-244.03407922 289.33233644 -244.94603716 287.45652772 -245.85717773 285.58032227 C-247.14205877 282.935229 -248.42999054 280.29164285 -249.71875 277.6484375 C-250.10579102 276.85049774 -250.49283203 276.05255798 -250.89160156 275.23043823 C-252.77636123 271.37363648 -254.7480457 267.65974646 -257 264 C-257.57509014 262.59656901 -258.11618464 261.17879465 -258.625 259.75 C-260.5447446 254.77949849 -262.9692953 250.17733474 -265.5 245.5 C-270.26645988 236.68238213 -270.26645988 236.68238213 -271.9375 232.125 C-274.15698072 226.11691732 -277.34280222 220.59109996 -280.36254883 214.95849609 C-282.88100898 210.22780561 -285.09122921 205.55594928 -286.9453125 200.5234375 C-289.47740358 194.46517513 -292.86892693 188.76402088 -296 183 C-298.68478321 177.93702919 -300.90176644 172.81531303 -302.984375 167.4765625 C-304.46126102 163.87523275 -306.20878011 160.4544955 -308 157 C-312.46371761 157.58135244 -316.13727814 158.74897566 -320.25 160.5625 C-325.80169972 163 -325.80169972 163 -328 163 C-327.70867187 163.6077124 -327.41734375 164.2154248 -327.1171875 164.84155273 C-317.40470944 185.10833331 -317.40470944 185.10833331 -312.6875 195.1875 C-309.56552891 201.84739343 -306.32297205 208.43775797 -303 215 C-298.26817422 224.35451555 -293.68112894 233.76069488 -289.23095703 243.25268555 C-286.73704069 248.53741302 -284.09287543 253.69793302 -281.19140625 258.7734375 C-279.93056281 261.12976786 -278.98777722 263.51760856 -278 266 C-276.93699431 268.19744994 -275.85027699 270.38347318 -274.75 272.5625 C-274.04287576 273.96870324 -273.33585322 275.37495763 -272.62890625 276.78125 C-272.22430176 277.58433594 -271.81969727 278.38742187 -271.40283203 279.21484375 C-268.80764071 284.36728765 -266.21758211 289.52228462 -263.63220215 294.67965698 C-262.70207946 296.53344234 -261.76952709 298.38599196 -260.83691406 300.23852539 C-258.06159623 305.77340094 -255.43289154 311.30585976 -253 317 C-251.04099095 321.02064549 -249.01787801 325.00864788 -247 329 C-242.88073153 337.19352696 -238.80843373 345.40310002 -234.875 353.6875 C-230.10333106 363.72647693 -225.26950465 373.73451513 -220.409729 383.73110962 C-219.56157314 385.47656031 -218.71434543 387.22246236 -217.86810303 388.96884155 C-216.66719602 391.44660849 -215.46291828 393.9227105 -214.2578125 396.3984375 C-213.90293762 397.13205002 -213.54806274 397.86566254 -213.18243408 398.62150574 C-211.34091278 402.39479633 -209.44166437 406.13617526 -207.46826172 409.84228516 C-207.08612518 410.56372711 -206.70398865 411.28516907 -206.31027222 412.0284729 C-204.86429973 414.20418411 -203.32265516 415.55151364 -201.25 417.125 C-198.46704677 419.32943998 -198.02559652 419.92455763 -196.8125 423.5 C-197.04051672 427.75631215 -198.360006 429.72000745 -201 433 C-204.67506229 431.68423696 -207.49408976 430.0942009 -210.5625 427.6875 C-211.30628906 427.11386719 -212.05007813 426.54023437 -212.81640625 425.94921875 C-218.16710531 421.17283444 -220.96196568 415.47270423 -224.0625 409.125 C-224.5356665 408.16843506 -225.00883301 407.21187012 -225.49633789 406.22631836 C-229.50964876 398.08253416 -233.42854858 389.89261186 -237.29516602 381.67822266 C-239.10186976 377.8590356 -240.89446324 374.0910902 -243.06640625 370.46484375 C-244.56878135 367.77270898 -245.68965278 365.36016396 -246.78125 362.5078125 C-249.53501633 355.40019101 -253.05982091 348.66714847 -256.5 341.875 C-257.1709516 340.54315945 -257.84152672 339.21112918 -258.51171875 337.87890625 C-260.75451238 333.42312862 -263.00412529 328.97080814 -265.25390625 324.51855469 C-267.25181472 320.54742674 -269.15186802 316.54278871 -271 312.5 C-274.2272707 305.5202379 -277.62877394 298.63018533 -281.0625 291.75 C-281.55685547 290.75677734 -282.05121094 289.76355469 -282.56054688 288.74023438 C-285.49188017 282.88921546 -288.53931106 277.12411579 -291.73754883 271.41430664 C-292.89660716 269.19772806 -293.79734604 267.04385666 -294.625 264.6875 C-295.83175193 261.00964408 -295.83175193 261.00964408 -297.9140625 258.16796875 C-299.9713912 255.04344895 -301.35197351 252.08717148 -302.75 248.625 C-305.75014766 241.40167798 -309.2010877 234.4438132 -312.74414062 227.47509766 C-319.68469229 213.7963821 -326.53879574 200.07309926 -333.1875 186.25 C-333.64487549 185.30439209 -334.10225098 184.35878418 -334.57348633 183.38452148 C-336.67640697 178.98604931 -338.61049615 174.68860517 -340 170 C-350.39788657 173.52815727 -360.46904334 177.65643811 -370.56445312 181.96386719 C-374.55582618 183.66188115 -378.55678379 185.33614664 -382.5625 187 C-383.64301636 187.45415283 -383.64301636 187.45415283 -384.74536133 187.91748047 C-389.76966871 190 -389.76966871 190 -392 190 C-391.58862793 190.74233887 -391.17725586 191.48467773 -390.75341797 192.24951172 C-382.76815153 206.66815334 -374.83194379 221.10930596 -367.03540039 235.63110352 C-363.14883363 242.86979913 -359.24316436 250.09764628 -355.3125 257.3125 C-354.81911133 258.21991943 -354.32572266 259.12733887 -353.81738281 260.06225586 C-353.3581543 260.90409424 -352.89892578 261.74593262 -352.42578125 262.61328125 C-351.79470459 263.774646 -351.79470459 263.774646 -351.15087891 264.95947266 C-350.20669713 266.63352256 -349.1680375 268.25394761 -348.10546875 269.85546875 C-347 272 -347 272 -346.94140625 274.07421875 C-348.60259268 277.09622948 -350.95819662 278.11339223 -353.9375 279.8125 C-354.57413574 280.18068848 -355.21077148 280.54887695 -355.86669922 280.92822266 C-357.3527678 281.78566199 -358.84233711 282.63704934 -360.33447266 283.48388672 C-363.43348878 285.24656213 -366.51967759 287.03068207 -369.60546875 288.81640625 C-375.15889483 292.02981534 -380.71916343 295.23113345 -386.28369141 298.42529297 C-388.10096811 299.47881038 -389.89557709 300.57238843 -391.66552734 301.70361328 C-394 303 -394 303 -397 303 C-397.40726318 302.29093506 -397.81452637 301.58187012 -398.23413086 300.85131836 C-408.34535308 283.24635115 -408.34535308 283.24635115 -418.71484375 265.79296875 C-426.78255259 252.43839737 -434.6283486 238.94829253 -442.48046875 225.46630859 C-446.83509517 217.99078665 -451.2074893 210.52586561 -455.58627319 203.06448364 C-458.07455646 198.82333463 -460.55982795 194.58042067 -463.04492188 190.33740234 C-464.29287923 188.20708553 -465.54150848 186.07716208 -466.79101562 183.94775391 C-468.34332953 181.30052058 -469.89120574 178.65075261 -471.4375 176 C-471.87989014 175.2474292 -472.32228027 174.4948584 -472.77807617 173.71948242 C-473.18002197 173.02830322 -473.58196777 172.33712402 -473.99609375 171.625 C-474.33825928 171.03976562 -474.6804248 170.45453125 -475.03295898 169.8515625 C-476.19469787 167.62721823 -477.09940024 165.34060423 -478 163 C-466.71444214 158.99717354 -455.41285056 155.04372446 -444.08642578 151.15795898 C-442.43421582 150.59045223 -440.78252878 150.021421 -439.13134766 149.45092773 C-422.28814857 143.63203734 -422.28814857 143.63203734 -414.53271484 141.72729492 C-411.66209445 140.90296697 -408.91876471 139.85657088 -406.12985229 138.79237366 C-402.66172873 137.50211998 -399.14144188 136.3836153 -395.6171875 135.2578125 C-394.0208319 134.74349403 -392.42447778 134.22917097 -390.828125 133.71484375 C-388.36055086 132.92239158 -385.8927382 132.13068768 -383.42480469 131.33935547 C-375.53671583 128.80763044 -367.66450932 126.27578136 -359.8828125 123.4296875 C-354.18717709 121.36345793 -348.44514566 119.62214549 -342.62672424 117.94737244 C-334.98050034 115.73397069 -327.43265631 113.24495019 -319.88598633 110.71557617 C-317.54070967 109.93020298 -315.19332735 109.15137104 -312.84570312 108.37304688 C-305.95677086 106.07873224 -299.13201301 103.73849142 -292.41723633 100.9675293 C-287.36510555 98.9453503 -282.20505326 97.21358275 -277.0625 95.4375 C-275.95970703 95.05142578 -274.85691406 94.66535156 -273.72070312 94.26757812 C-267.83523965 92.22936747 -261.97623332 90.36732153 -255.92358398 88.89086914 C-253.34175416 88.1041387 -250.92686352 87.18649688 -248.43041992 86.16845703 C-242.63307315 83.8125045 -236.73863974 81.81366399 -230.8046875 79.83203125 C-228.39815298 79.02225541 -225.99166062 78.21235427 -223.58520508 77.40234375 C-222.31664575 76.97632267 -221.04806018 76.55037973 -219.77944946 76.12451172 C-192.80796712 67.06616302 -165.94920143 57.715215 -139.16015625 48.13018799 C-133.49320365 46.10347752 -127.82457398 44.08146479 -122.15625 42.05859375 C-112.67378833 38.67380687 -103.19213758 35.28675643 -93.7109375 31.8984375 C-81.75147191 27.62491942 -69.79152676 23.35276209 -57.82748413 19.09207153 C-55.93733308 18.41869562 -54.04737152 17.74478752 -52.15762329 17.07028198 C-42.5459629 13.63997055 -32.92756626 10.26169044 -23.22119141 7.10791016 C-18.95352188 5.6400699 -14.81973425 3.9144091 -10.68359375 2.11328125 C-2.53460621 -1.2673031 -2.53460621 -1.2673031 0 0 Z " fill="#11AB22" transform="translate(1218,411)"/>
<path d="M0 0 C2.90396837 1.44719945 3.44345755 3.38346493 4.74658203 6.31933594 C5.27300293 7.47981445 5.79942383 8.64029297 6.34179688 9.8359375 C6.619328 10.46504028 6.89685913 11.09414307 7.18280029 11.74230957 C8.68739813 15.15120866 10.2399777 18.53828795 11.78564453 21.92871094 C12.1136203 22.65157288 12.44159607 23.37443481 12.7795105 24.11920166 C17.13095381 33.6737039 21.78944344 43.08056409 26.42828369 52.4979248 C30.79557619 61.36869342 34.99066207 70.28082961 38.95916748 79.33737183 C41.4425793 84.96624989 44.12190757 90.47080543 46.90362549 95.95730591 C50.85641685 103.76041064 54.57185144 111.67332996 58.30126953 119.58496094 C59.08053359 121.23438603 59.8599978 122.88371658 60.63964844 124.53295898 C62.25683213 127.95437069 63.873168 131.37618075 65.48876953 134.79833984 C69.42057968 143.1257393 73.36035767 151.44936587 77.30126953 159.77246094 C77.86979141 160.97352478 77.86979141 160.97352478 78.44979858 162.19885254 C82.97536308 171.75838476 87.52282099 181.30660675 92.11376953 190.83496094 C96.37175662 199.67990387 100.5812137 208.54699874 104.75601196 217.43145752 C105.39527262 218.79160601 106.03519104 220.15144562 106.6758728 221.51092529 C110.39896702 229.41495789 114.02289728 237.35119335 117.46809387 245.38087463 C119.90465812 251.02812013 122.63689634 256.50170789 125.44580078 261.97167969 C128.44489606 268.0252625 129.94257791 272.31942436 127.92626953 278.95996094 C122.20989041 285.70235683 113.37049499 287.01509297 104.92626953 287.95996094 C89.36860345 288.64679992 74.27550756 288.47842723 59.48876953 283.20996094 C58.83787354 282.98228027 58.18697754 282.75459961 57.51635742 282.52001953 C48.44241471 279.0220537 43.93153099 273.18319543 39.73876953 264.64746094 C39.00605835 263.20113281 39.00605835 263.20113281 38.25854492 261.72558594 C36.4586199 258.14796053 34.6907013 254.5551573 32.92626953 250.95996094 C32.1519866 249.38779349 31.37756505 247.8156943 30.60302734 246.24365234 C22.38028702 229.53779251 14.24464275 212.78967156 6.24438477 195.97607422 C1.81327234 186.68305873 -2.68866429 177.42440125 -7.19506836 168.16772461 C-8.10780969 166.29229737 -9.01976763 164.41648866 -9.9309082 162.5402832 C-11.21578924 159.89518993 -12.50372101 157.25160379 -13.79248047 154.60839844 C-14.17952148 153.81045868 -14.5665625 153.01251892 -14.96533203 152.19039917 C-16.8500917 148.33359741 -18.82177617 144.6197074 -21.07373047 140.95996094 C-21.64882061 139.55652995 -22.18991511 138.13875559 -22.69873047 136.70996094 C-24.61847507 131.73945942 -27.04302577 127.13729568 -29.57373047 122.45996094 C-34.34019035 113.64234307 -34.34019035 113.64234307 -36.01123047 109.08496094 C-38.23071118 103.07687826 -41.41653269 97.5510609 -44.4362793 91.91845703 C-46.95473945 87.18776654 -49.16495968 82.51591022 -51.01904297 77.48339844 C-53.55113405 71.42513606 -56.9426574 65.72398182 -60.07373047 59.95996094 C-62.76011728 54.89396606 -64.97347766 49.7669051 -67.06591797 44.42871094 C-69.76395944 37.68500871 -69.76395944 37.68500871 -74.07373047 31.95996094 C-73.28095703 31.65445313 -72.48818359 31.34894531 -71.67138672 31.03417969 C-37.03482989 17.58897594 -37.03482989 17.58897594 -3.97143555 0.73168945 C-2.07373047 -0.04003906 -2.07373047 -0.04003906 0 0 Z " fill="#023C7D" transform="translate(982.07373046875,534.0400390625)"/>
<path d="M0 0 C10.48754915 4.33967551 14.69437021 14.81116789 19.47338867 24.47680664 C20.09613103 25.72178145 20.71957456 26.96640575 21.34365845 28.21070862 C23.02686157 31.57172533 24.70013737 34.93759417 26.37150741 38.30450749 C28.13715157 41.85726792 29.91168973 45.40558166 31.68513489 48.95445251 C34.66853429 54.92768947 37.64601775 60.9038433 40.61938477 66.88208008 C44.40008931 74.48350056 48.1897291 82.08042648 51.98258495 89.67578983 C55.27907786 96.27718355 58.5720486 102.88033299 61.86413407 109.48392558 C62.56160268 110.88287441 63.25917809 112.28177 63.95686507 113.68060994 C70.76554752 127.3320202 77.56173096 140.98799678 84.1496582 154.74780273 C84.57724772 155.64077844 85.00483725 156.53375414 85.44538403 157.45378971 C89.46380871 165.89499186 93.26592216 174.42980989 97 183 C94.64856824 183.67789024 92.29461376 184.34240747 89.9375 185 C89.28072266 185.19078125 88.62394531 185.3815625 87.94726562 185.578125 C83.5325982 186.79596429 79.62058323 187.19227394 75 187 C69.43356096 176.76050103 64.21717374 166.39835159 59.22924805 155.86499023 C55.65831938 148.33640088 51.95995742 140.87987037 48.20925903 133.43952942 C45.01479376 127.08091642 41.922825 120.6799294 38.875 114.25 C33.24104241 102.41970193 27.39314441 90.70281089 21.5 79 C19.57031641 75.16796729 17.64272438 71.33490266 15.71875 67.5 C15.24928955 66.56430176 14.7798291 65.62860352 14.29614258 64.66455078 C10.2878453 56.64244749 6.41100372 48.56000603 2.58972168 40.44726562 C-0.45902912 32.63278733 -0.45902912 32.63278733 -6 27 C-9 26.75 -9 26.75 -12 27 C-14.3738267 28.96230213 -14.3738267 28.96230213 -14.4375 32.625 C-14.31073407 36.81573247 -12.98502179 39.08438297 -10.6328125 42.46484375 C-8.44046126 45.86875752 -6.67097214 49.4374197 -4.875 53.0625 C-4.53855469 53.73539062 -4.20210937 54.40828125 -3.85546875 55.1015625 C-2.37188873 58.09804231 -0.96361769 61.08648405 0.33383179 64.17063904 C1.96640753 67.98684624 3.78668241 71.70050427 5.65429688 75.40625 C6.00770142 76.11159882 6.36110596 76.81694763 6.72521973 77.54367065 C7.48872509 79.0668953 8.25315378 80.58965742 9.01841736 82.11199951 C10.24180333 84.54586342 11.4625858 86.98101801 12.68273926 89.41650391 C15.72035791 95.47844987 18.76221935 101.53826417 21.80419922 107.59802246 C41.37766378 146.59186097 41.37766378 146.59186097 49.98742676 164.85522461 C51.3876753 167.82115191 52.80662768 170.77782416 54.2265625 173.734375 C55.02613382 175.40620593 55.82562046 177.07807736 56.625 178.75 C57.04394531 179.62269531 57.46289062 180.49539063 57.89453125 181.39453125 C58.49201172 182.64556641 58.49201172 182.64556641 59.1015625 183.921875 C59.44525879 184.63956055 59.78895508 185.35724609 60.14306641 186.09667969 C61 188 61 188 62 191 C57.62607492 191.96147958 53.2518784 192.92171224 48.87744141 193.88085938 C47.39364479 194.2063747 45.90991898 194.53221301 44.42626953 194.85839844 C36.29831518 196.6451234 28.17022701 198.41490603 20 200 C13.19219732 201.33380505 6.39345399 202.67750823 -0.375 204.19921875 C-10.87083144 206.55233226 -21.30465537 208.66251214 -31.96948242 210.09960938 C-35.8029286 210.29438049 -35.8029286 210.29438049 -39 212 C-41.4150921 212.43211253 -43.81824558 212.81083305 -46.24609375 213.15625 C-46.97240494 213.2634436 -47.69871613 213.37063721 -48.44703674 213.4810791 C-50.77663405 213.82465511 -53.10696418 214.16285283 -55.4375 214.5 C-57.76442564 214.83738862 -60.09113302 215.17600983 -62.41725159 215.5189209 C-63.86691334 215.7325897 -65.31705241 215.94304899 -66.76768494 216.15002441 C-70.49984915 216.67486144 -70.49984915 216.67486144 -74 218 C-75.86659192 218.31403875 -77.74069367 218.58392518 -79.6171875 218.83203125 C-80.77259033 218.98897461 -81.92799316 219.14591797 -83.1184082 219.30761719 C-84.3580835 219.47422852 -85.59775879 219.64083984 -86.875 219.8125 C-96.56184609 221.14331838 -106.14717221 222.65305053 -115.69287109 224.78051758 C-120.24393786 225.76925251 -124.33997467 226.17236553 -129 226 C-127.46677425 220.85281475 -125.24411611 216.29568395 -122.78125 211.55078125 C-122.36387573 210.73868698 -121.94650146 209.92659271 -121.51647949 209.08988953 C-120.18164053 206.4953498 -118.84082946 203.903948 -117.5 201.3125 C-116.62983561 199.62193659 -115.76004086 197.93118286 -114.890625 196.24023438 C-109.33860894 185.45593452 -103.70832885 174.7137581 -98.04742432 163.98629761 C-95.83357814 159.78803975 -93.63351736 155.58260438 -91.4375 151.375 C-90.95192627 150.44518311 -90.46635254 149.51536621 -89.96606445 148.55737305 C-86.95240504 142.77617207 -83.96032827 136.98426253 -80.984375 131.18359375 C-73.6670765 116.92489371 -66.28395239 102.71614251 -58.67138672 88.61206055 C-53.7712534 79.50672427 -49.02618283 70.32785461 -44.3125 61.125 C-39.02285455 50.79934659 -33.66694727 40.52400449 -28.04541016 30.37353516 C-25.79655508 26.3124274 -23.59525447 22.24253751 -21.51171875 18.09375 C-21.11726562 17.31644531 -20.7228125 16.53914063 -20.31640625 15.73828125 C-19.59867096 14.31522823 -18.89281523 12.88607339 -18.203125 11.44921875 C-14.42272032 3.99468582 -8.8746517 -1.99942746 0 0 Z " fill="#FBFCFC" transform="translate(765,279)"/>
<path d="M0 0 C93.74285714 0 93.74285714 0 115 18 C115.71671875 18.60457031 116.4334375 19.20914063 117.171875 19.83203125 C125.92642314 27.89096607 131.75224658 38.64070784 135 50 C135.29777344 50.97453125 135.59554687 51.9490625 135.90234375 52.953125 C141.49132733 74.27883193 138.92062799 98.57644774 128.40234375 117.94140625 C117.51596679 135.77125826 102.80430321 145.37643927 83 151 C55.98431828 157.00348483 27.67469763 153 0 153 C0 102.51 0 52.02 0 0 Z " fill="#033C7C" transform="translate(547,875)"/>
<path d="M0 0 C10.23 0 20.46 0 31 0 C36.61602374 11.23204748 36.61602374 11.23204748 38.48046875 15.66015625 C38.91278809 16.67948242 39.34510742 17.69880859 39.79052734 18.74902344 C40.25152832 19.8424707 40.7125293 20.93591797 41.1875 22.0625 C42.24446751 24.54888702 43.30261418 27.03472442 44.36328125 29.51953125 C44.64679443 30.18383148 44.93030762 30.84813171 45.22241211 31.53256226 C48.66524762 39.58124163 52.18911895 47.59434201 55.71313477 55.60772705 C56.8819886 58.26589324 58.0495147 60.92463941 59.21679688 63.58349609 C62.41334875 70.86168304 65.61205439 78.13872049 68.84660339 85.40011597 C75.67065565 100.72325864 82.15560706 116.14531786 88.3125 131.75 C88.64381927 132.58880707 88.97513855 133.42761414 89.3164978 134.2918396 C90.2526028 136.66703356 91.18414944 139.0439456 92.11328125 141.421875 C92.53095261 142.48517784 92.53095261 142.48517784 92.95706177 143.56996155 C94.17554968 146.70882924 95.1812585 149.72503402 96 153 C86.43 153 76.86 153 67 153 C62.71 141.78 58.42 130.56 54 119 C28.59 118.67 3.18 118.34 -23 118 C-23.66 120.31 -24.32 122.62 -25 125 C-26.07250173 128.33086169 -27.22467425 131.6327926 -28.375 134.9375 C-28.66632812 135.79279297 -28.95765625 136.64808594 -29.2578125 137.52929688 C-29.55171875 138.37427734 -29.845625 139.21925781 -30.1484375 140.08984375 C-30.40802246 140.84128662 -30.66760742 141.59272949 -30.93505859 142.36694336 C-32.40706131 146.00645488 -34.24427587 149.48855174 -36 153 C-44.91 153 -53.82 153 -63 153 C-61.87486424 146.24918543 -61.87486424 146.24918543 -60.48120117 142.86572266 C-60.02018257 141.73392075 -60.02018257 141.73392075 -59.54985046 140.57925415 C-59.2175795 139.78224091 -58.88530853 138.98522766 -58.54296875 138.1640625 C-58.19873367 137.32587982 -57.8544986 136.48769714 -57.49983215 135.62411499 C-56.77230142 133.85626045 -56.04174404 132.0896488 -55.30834961 130.32421875 C-54.19518429 127.64350522 -53.09193541 124.95887993 -51.99023438 122.2734375 C-51.27922984 120.54923823 -50.56765948 118.82527215 -49.85546875 117.1015625 C-49.52927048 116.30859772 -49.2030722 115.51563293 -48.86698914 114.69863892 C-47.03797592 110.30604195 -45.07547313 106.03172064 -42.88517761 101.80691528 C-41.37228366 98.71864105 -40.26874166 95.48872594 -39.125 92.25 C-36.9271469 86.1914537 -34.34573022 80.51817817 -31.37109375 74.79296875 C-29.61445417 71.21462886 -28.30396848 67.55378697 -26.99609375 63.79296875 C-24.71624502 57.40045171 -22.13737093 51.08422807 -19 45.0625 C-16.66895138 40.56019238 -14.99695169 35.82168003 -13.21484375 31.08203125 C-12.26762931 28.67896952 -11.27602214 26.45844808 -10.0625 24.1875 C-7.60793385 19.52883363 -5.901224 14.57333731 -4.10571289 9.63354492 C-2.88847402 6.29730442 -1.59239496 3.18478993 0 0 Z " fill="#053E7E" transform="translate(983,875)"/>
<path d="M0 0 C8.25 0 16.5 0 25 0 C29.12728435 4.7168964 33.04992591 9.2326963 36.8125 14.1875 C37.67443271 15.31774376 38.53641324 16.44795106 39.3984375 17.578125 C39.82995117 18.14595703 40.26146484 18.71378906 40.70605469 19.29882812 C42.77457671 22.01834915 44.85513649 24.72857003 46.9375 27.4375 C47.34718018 27.97076904 47.75686035 28.50403809 48.17895508 29.0534668 C51.25982941 33.05638524 54.37416461 37.03212968 57.5 41 C62.72001365 47.62617656 67.86860651 54.30508678 73 61 C74.58268269 63.06299932 76.16602627 65.12549178 77.75 67.1875 C78.15371826 67.71311523 78.55743652 68.23873047 78.97338867 68.78027344 C81.41065468 71.94867235 83.86052177 75.10686412 86.3203125 78.2578125 C86.90844727 79.01167236 87.49658203 79.76553223 88.10253906 80.54223633 C89.22553538 81.98063064 90.34973644 83.41808586 91.47558594 84.85424805 C97.43423228 92.48688054 103.18570911 100.24761215 109 108 C109.33 72.36 109.66 36.72 110 0 C118.25 0 126.5 0 135 0 C135 50.49 135 100.98 135 153 C111 153 111 153 103.8125 146.0625 C102.06542969 143.69702148 102.06542969 143.69702148 100.859375 141.62109375 C98.05918466 137.02395368 94.88512759 132.85307828 91.5625 128.625 C90.47663277 127.20114761 89.39331692 125.77534602 88.3125 124.34765625 C84.92758815 119.89440672 81.50029099 115.47500135 78.0625 111.0625 C77.48338867 110.31919434 76.90427734 109.57588867 76.30761719 108.81005859 C75.1316654 107.30114874 73.95555805 105.79236009 72.77929688 104.28369141 C70.98113348 101.97578521 69.18546443 99.6659607 67.390625 97.35546875 C58.24299365 85.57983672 49.0746402 73.82369847 39.75 62.1875 C38.2770122 60.34661899 36.80435182 58.5054772 35.33203125 56.6640625 C34.11945141 55.14922669 32.9036504 53.63697076 31.6875 52.125 C31.048125 51.320625 30.40875 50.51625 29.75 49.6875 C29.20859375 49.01074219 28.6671875 48.33398438 28.109375 47.63671875 C27 46 27 46 27 44 C26.34 44 25.68 44 25 44 C25 79.97 25 115.94 25 153 C16.75 153 8.5 153 0 153 C0 102.51 0 52.02 0 0 Z " fill="#023C7C" transform="translate(299,875)"/>
<path d="M0 0 C57.30113636 0 57.30113636 0 72.4140625 14.19140625 C84.47418123 27.94469436 86.12985956 42.60363796 85.22753906 60.21875 C84.21278207 72.62230334 78.97727258 83.97392332 69.8359375 92.4765625 C50.15643381 108.80636343 24.23011503 105 0 105 C0 70.35 0 35.7 0 0 Z " fill="#FAFBFC" transform="translate(573,899)"/>
<path d="M0 0 C8.91 0 17.82 0 27 0 C27 50.49 27 100.98 27 153 C18.09 153 9.18 153 0 153 C0 102.51 0 52.02 0 0 Z " fill="#013B7C" transform="translate(792,875)"/>
<path d="M0 0 C2.57091741 2.30053904 3.92272233 4.54317033 5.3828125 7.65625 C6.04349731 9.05218384 6.04349731 9.05218384 6.7175293 10.47631836 C7.41422729 11.97304077 7.41422729 11.97304077 8.125 13.5 C8.61073486 14.52939697 9.09646973 15.55879395 9.59692383 16.61938477 C11.07026382 19.74363655 12.53557181 22.87156313 14 26 C15.55905846 29.31413008 17.12209703 32.6263624 18.6875 35.9375 C19.05456055 36.71440186 19.42162109 37.49130371 19.79980469 38.29174805 C23.05684218 45.16392283 26.44361618 51.96622305 29.86962891 58.75537109 C32.58796434 64.15329247 35.28265473 69.5631108 37.98364258 74.96972656 C40.04573387 79.09608014 42.10943231 83.22150904 44.1875 87.33984375 C44.50904053 87.97841309 44.83058105 88.61698242 45.16186523 89.27490234 C45.99316881 90.92489009 46.82656752 92.57382181 47.66015625 94.22265625 C48.48993374 95.94269063 49.27364304 97.68683312 49.98046875 99.4609375 C51.23701989 102.59027941 52.7297911 105.55182542 54.25 108.5625 C54.95712424 109.96870324 55.66414678 111.37495763 56.37109375 112.78125 C56.77569824 113.58433594 57.18030273 114.38742187 57.59716797 115.21484375 C60.19235929 120.36728765 62.78241789 125.52228462 65.36779785 130.67965698 C66.29792054 132.53344234 67.23047291 134.38599196 68.16308594 136.23852539 C70.93840377 141.77340094 73.56710846 147.30585976 76 153 C77.95900905 157.02064549 79.98212199 161.00864788 82 165 C86.11926847 173.19352696 90.19156627 181.40310002 94.125 189.6875 C98.89666894 199.72647693 103.73049535 209.73451513 108.590271 219.73110962 C109.43842686 221.47656031 110.28565457 223.22246236 111.13189697 224.96884155 C112.33280398 227.44660849 113.53708172 229.9227105 114.7421875 232.3984375 C115.09706238 233.13205002 115.45193726 233.86566254 115.81756592 234.62150574 C117.65908722 238.39479633 119.55833563 242.13617526 121.53173828 245.84228516 C121.91387482 246.56372711 122.29601135 247.28516907 122.68972778 248.0284729 C124.13570027 250.20418411 125.67734484 251.55151364 127.75 253.125 C130.53295323 255.32943998 130.97440348 255.92455763 132.1875 259.5 C131.95948328 263.75631215 130.639994 265.72000745 128 269 C124.32493771 267.68423696 121.50591024 266.0942009 118.4375 263.6875 C117.69371094 263.11386719 116.94992187 262.54023437 116.18359375 261.94921875 C110.83289469 257.17283444 108.03803432 251.47270423 104.9375 245.125 C104.4643335 244.16843506 103.99116699 243.21187012 103.50366211 242.22631836 C99.49035124 234.08253416 95.57145142 225.89261186 91.70483398 217.67822266 C89.89813024 213.8590356 88.10553676 210.0910902 85.93359375 206.46484375 C84.43121865 203.77270898 83.31034722 201.36016396 82.21875 198.5078125 C79.46498367 191.40019101 75.94017909 184.66714847 72.5 177.875 C71.8290484 176.54315945 71.15847328 175.21112918 70.48828125 173.87890625 C68.24548762 169.42312862 65.99587471 164.97080814 63.74609375 160.51855469 C61.74818528 156.54742674 59.84813198 152.54278871 58 148.5 C54.7727293 141.5202379 51.37122606 134.63018533 47.9375 127.75 C47.44314453 126.75677734 46.94878906 125.76355469 46.43945312 124.74023438 C43.50811983 118.88921546 40.46068894 113.12411579 37.26245117 107.41430664 C36.10339284 105.19772806 35.20265396 103.04385666 34.375 100.6875 C33.16824807 97.00964408 33.16824807 97.00964408 31.0859375 94.16796875 C29.0286088 91.04344895 27.64802649 88.08717148 26.25 84.625 C23.24985234 77.40167798 19.7989123 70.4438132 16.25585938 63.47509766 C7.96574026 47.13660085 -0.13497609 30.71466594 -7.96948242 14.15283203 C-8.6629171 12.70419262 -9.38649444 11.26964162 -10.13769531 9.85009766 C-11 8 -11 8 -10.94140625 5.890625 C-9.55655769 3.10943537 -7.81191467 2.76877988 -4.9375 1.75 C-4.01839844 1.41484375 -3.09929688 1.0796875 -2.15234375 0.734375 C-1.44207031 0.49203125 -0.73179687 0.2496875 0 0 Z " fill="#093F7E" transform="translate(889,575)"/>
<path d="M0 0 C8.58 0 17.16 0 26 0 C26 50.49 26 100.98 26 153 C17.42 153 8.84 153 0 153 C0 102.51 0 52.02 0 0 Z " fill="#053C7C" transform="translate(154,875)"/>
<path d="M0 0 C5.02891195 4.05290601 7.37015633 9.12754341 10.125 14.875 C10.53492188 15.70902344 10.94484375 16.54304688 11.3671875 17.40234375 C13.75221084 22.27761204 16.08520366 27.17729695 18.41503906 32.07910156 C24.94546633 45.80461054 31.66382423 59.42448468 38.5 73 C47.4550385 90.78322655 56.14094674 108.67878188 64.62802124 126.68989563 C69.48343981 136.99030033 74.47741983 147.21783772 79.7265625 157.32421875 C81 160 81 160 81 162 C71.23741007 164.64748201 71.23741007 164.64748201 68 164 C65.22260375 159.92707393 63.13430751 155.41359032 60.9375 151.0078125 C60.5461084 150.22598602 60.1547168 149.44415955 59.75146484 148.63864136 C58.9200772 146.97654571 58.08969689 145.31394586 57.26025391 143.65087891 C56.03450614 141.19415934 54.80464073 138.73953738 53.57421875 136.28515625 C49.22571564 127.59147487 44.96430585 118.86210104 40.79296875 110.08203125 C34.46876535 96.78499003 27.87106334 83.62645858 21.2677002 70.46673584 C19.66852041 67.27869685 18.07165907 64.08949706 16.47460938 60.90039062 C14.04687294 56.05309966 11.61803687 51.20636211 9.18823242 46.36010742 C6.56314626 41.12410593 3.93996882 35.88715774 1.3203125 30.6484375 C0.74684082 29.50165527 0.17336914 28.35487305 -0.41748047 27.17333984 C-2.57830669 22.84035323 -4.72679147 18.50134587 -6.87109375 14.16015625 C-7.82192467 12.07834925 -7.82192467 12.07834925 -9 11 C-9.46302251 3.82315113 -9.46302251 3.82315113 -7.875 1 C-5.00288188 -0.53179633 -3.2072487 -0.51315979 0 0 Z " fill="#083F7E" transform="translate(759,305)"/>
<path d="M0 0 C2.75230933 3.31156387 4.31006658 6.73379159 5.96875 10.6953125 C6.2458078 11.35243729 6.5228656 12.00956207 6.80831909 12.68659973 C7.71084818 14.83055005 8.60553207 16.97767554 9.5 19.125 C10.12140199 20.60641334 10.743314 22.08761284 11.36572266 23.56860352 C12.31450479 25.82703251 13.26262784 28.08572377 14.20840454 30.34541321 C16.24178032 35.20360061 18.29554252 40.05254861 20.3671875 44.89453125 C20.87701172 46.08868652 21.38683594 47.2828418 21.91210938 48.51318359 C22.87218924 50.76052674 23.83436036 53.00697787 24.79882812 55.25244141 C25.22357422 56.25065918 25.64832031 57.24887695 26.0859375 58.27734375 C26.4576709 59.14609131 26.8294043 60.01483887 27.21240234 60.90991211 C28 63 28 63 28 65 C10.18 65 -7.64 65 -26 65 C-25.10307006 60.51535028 -23.80764675 56.49534732 -22.1875 52.25 C-21.93935547 51.58484375 -21.69121094 50.9196875 -21.43554688 50.234375 C-19.83056469 45.9870939 -18.05736561 41.84380807 -16.19360352 37.70458984 C-14.69752345 34.31461747 -13.26422678 30.8993753 -11.8359375 27.48046875 C-11.55549088 26.80942108 -11.27504425 26.13837341 -10.98609924 25.44699097 C-9.81786308 22.64921099 -8.6513035 19.85073455 -7.48535156 17.05200195 C-6.62421973 14.98599919 -5.76140537 12.92070513 -4.8984375 10.85546875 C-4.63694916 10.22626022 -4.37546082 9.5970517 -4.10604858 8.94877625 C-2.8355148 5.90981078 -1.52240208 2.92179552 0 0 Z " fill="#F8F9FB" transform="translate(998,903)"/>
<path d="M0 0 C8.91 0 17.82 0 27 0 C27 50.49 27 100.98 27 153 C26.67 153 26.34 153 26 153 C26 102.84 26 52.68 26 1 C18.41 1 10.82 1 3 1 C3.01474869 2.8747702 3.02949738 4.74954041 3.04469299 6.68112183 C3.18272359 24.31040708 3.31552447 41.93972479 3.4429636 59.56908989 C3.50862345 68.63348547 3.57618684 77.69785947 3.64819336 86.76220703 C3.71093129 94.6604061 3.77013653 102.55862228 3.82505554 110.45687973 C3.85427353 114.64099579 3.88529035 118.82508146 3.92053413 123.00915146 C3.95362236 126.9439348 3.98200211 130.87872347 4.00670624 134.81356812 C4.01663431 136.2608178 4.02831088 137.70805666 4.04183006 139.15527725 C4.05997468 141.12511773 4.07132745 143.09501735 4.08229065 145.06491089 C4.09473485 146.72137288 4.09473485 146.72137288 4.10743046 148.41129875 C4 151 4 151 3 153 C2.01 153 1.02 153 0 153 C0 102.51 0 52.02 0 0 Z " fill="#41699B" transform="translate(792,875)"/>
<path d="M0 0 C0.33 0.99 0.66 1.98 1 3 C1.66 3 2.32 3 3 3 C3.04676385 21.37632475 3.08201033 39.752634 3.10362434 58.12900543 C3.11392778 66.66187024 3.12797027 75.19469802 3.15087891 83.72753906 C3.17084136 91.16656377 3.18372322 98.60556166 3.18817699 106.04461241 C3.19077953 109.98188822 3.19687719 113.91908732 3.21146011 117.8563385 C3.22508917 121.56629861 3.22921193 125.27615081 3.22621536 128.98613358 C3.22702328 130.98848094 3.23775697 132.99081669 3.24884033 134.99313354 C3.23433574 141.35459416 2.91612545 146.91903176 1 153 C0.67 153 0.34 153 0 153 C0 102.51 0 52.02 0 0 Z " fill="#EAEEF3" transform="translate(180,875)"/>
<path d="M0 0 C0.99 0 1.98 0 3 0 C3 50.16 3 100.32 3 152 C1.02 152 -0.96 152 -3 152 C-2.350704 151.4650227 -1.701408 150.93004539 -1.03243637 150.37885666 C1.54363077 147.36370964 1.50558173 145.86455454 1.51898193 141.93829346 C1.53289474 140.69591415 1.54680756 139.45353485 1.56114197 138.17350769 C1.55642904 136.79958975 1.5513351 135.42567308 1.54589844 134.05175781 C1.55463382 132.60289906 1.56511949 131.15404997 1.57722473 129.70521545 C1.60511013 125.77368291 1.60848887 121.84246475 1.60750484 117.91084766 C1.61063179 113.80147555 1.6362454 109.6922455 1.65948486 105.58294678 C1.70006524 97.80219387 1.72039033 90.02152481 1.73345876 82.24068236 C1.74932193 73.38215809 1.78773464 64.52377665 1.82805204 55.66533518 C1.91047883 37.44360193 1.96455354 19.22188214 2 1 C1.34 0.67 0.68 0.34 0 0 Z " fill="#043071" transform="translate(815,876)"/>
<path d="M0 0 C-3.12147545 1.67333158 -6.24773498 3.33751716 -9.375 5 C-10.26445313 5.47695313 -11.15390625 5.95390625 -12.0703125 6.4453125 C-12.92109375 6.89648438 -13.771875 7.34765625 -14.6484375 7.8125 C-15.43395996 8.23144531 -16.21948242 8.65039062 -17.02880859 9.08203125 C-19 10 -19 10 -21 10 C-21 9.01 -21 8.02 -21 7 C-22.32 6.34 -23.64 5.68 -25 5 C-21.39963863 3.96540315 -17.79421232 2.9497136 -14.1875 1.9375 C-13.16333984 1.64294922 -12.13917969 1.34839844 -11.08398438 1.04492188 C-10.10107422 0.77099609 -9.11816406 0.49707031 -8.10546875 0.21484375 C-7.19949951 -0.04176025 -6.29353027 -0.29836426 -5.36010742 -0.56274414 C-3 -1 -3 -1 0 0 Z " fill="#FD7F1F" transform="translate(1127,395)"/>
<path d="M0 0 C0.33 0.99 0.66 1.98 1 3 C0.34 3 -0.32 3 -1 3 C-1 3.66 -1 4.32 -1 5 C-2.35546875 6.33203125 -2.35546875 6.33203125 -4.1875 7.8125 C-9.70721846 12.40118161 -14.39778671 17.51213742 -19 23 C-19.7355957 21.26831055 -19.7355957 21.26831055 -20 19 C-18.49291992 16.90942383 -18.49291992 16.90942383 -16.23046875 14.70703125 C-15.42416016 13.91232422 -14.61785156 13.11761719 -13.78710938 12.29882812 C-12.92923828 11.47833984 -12.07136719 10.65785156 -11.1875 9.8125 C-9.9180957 8.56436523 -9.9180957 8.56436523 -8.62304688 7.29101562 C-2.36536654 1.18268327 -2.36536654 1.18268327 0 0 Z " fill="#174B88" transform="translate(185,252)"/>
<path d="M0 0 C-2.53978115 3.80967173 -5.2723843 4.42562643 -9.4375 5.75 C-10.4594043 6.09998047 -10.4594043 6.09998047 -11.50195312 6.45703125 C-16.61298582 8.12900473 -16.61298582 8.12900473 -20 7 C-20 6.34 -20 5.68 -20 5 C-17.04575985 3.96703956 -14.08605927 2.95073045 -11.125 1.9375 C-10.28324219 1.64294922 -9.44148437 1.34839844 -8.57421875 1.04492188 C-7.76855469 0.77099609 -6.96289062 0.49707031 -6.1328125 0.21484375 C-5.38918457 -0.04176025 -4.64555664 -0.29836426 -3.87939453 -0.56274414 C-2 -1 -2 -1 0 0 Z " fill="#2BB63A" transform="translate(797,556)"/>
<path d="M0 0 C-4.95 2.97 -9.9 5.94 -15 9 C-18 7 -18 7 -19 5 C-16.21142 3.96995707 -13.41969712 2.95069003 -10.625 1.9375 C-9.8309375 1.64294922 -9.036875 1.34839844 -8.21875 1.04492188 C-7.45820312 0.77099609 -6.69765625 0.49707031 -5.9140625 0.21484375 C-5.2123291 -0.04176025 -4.5105957 -0.29836426 -3.78759766 -0.56274414 C-2 -1 -2 -1 0 0 Z " fill="#30BE3A" transform="translate(1218,411)"/>
<path d="M0 0 C0.66 0.99 1.32 1.98 2 3 C1.34 3.66 0.68 4.32 0 5 C-0.59834554 6.52056618 -1.13506656 8.06612088 -1.625 9.625 C-1.88539063 10.44226563 -2.14578125 11.25953125 -2.4140625 12.1015625 C-2.60742188 12.72804688 -2.80078125 13.35453125 -3 14 C-3.99 14 -4.98 14 -6 14 C-6.33 15.65 -6.66 17.3 -7 19 C-7.66 19 -8.32 19 -9 19 C-7.6077541 14.37324343 -5.70479016 10.35313769 -3.375 6.125 C-2.74335937 4.97257812 -2.11171875 3.82015625 -1.4609375 2.6328125 C-0.97882812 1.76398438 -0.49671875 0.89515625 0 0 Z " fill="#164784" transform="translate(581,469)"/>
<path d="M0 0 C0.66 0.66 1.32 1.32 2 2 C1.2575 1.9175 0.515 1.835 -0.25 1.75 C-3.10984372 1.76046128 -3.10984372 1.76046128 -5.25 3.75 C-6.95663677 5.94424728 -7.61205523 7.28438663 -8 10 C-7.34 10 -6.68 10 -6 10 C-5.67 11.98 -5.34 13.96 -5 16 C-7.92477319 13.07522681 -9.30875009 10.97985009 -9.4375 6.875 C-9 3 -9 3 -7.875 1 C-5.14368353 -0.45670212 -3.03989923 -0.32339354 0 0 Z " fill="#2D5992" transform="translate(759,305)"/>
<path d="M0 0 C2.0894988 3.1342482 3.56445886 6.26109446 5.125 9.6875 C5.66382813 10.86699219 6.20265625 12.04648437 6.7578125 13.26171875 C7.16773438 14.16535156 7.57765625 15.06898438 8 16 C7.01 16.99 6.02 17.98 5 19 C5.33 17.35 5.66 15.7 6 14 C5.01 13.67 4.02 13.34 3 13 C0.58743614 8.44293494 -0.38284419 5.23220388 0 0 Z " fill="#104482" transform="translate(873,305)"/>
<path d="M0 0 C0.33 0.66 0.66 1.32 1 2 C0.22265625 3.9453125 0.22265625 3.9453125 -0.9375 6.125 C-1.31777344 6.84945313 -1.69804688 7.57390625 -2.08984375 8.3203125 C-2.54037109 9.15175781 -2.54037109 9.15175781 -3 10 C-3.66 10 -4.32 10 -5 10 C-5.33 11.65 -5.66 13.3 -6 15 C-6.99 15.33 -7.98 15.66 -9 16 C-7.64175023 12.50376447 -6.15316912 9.11682003 -4.5 5.75 C-4.0771875 4.87859375 -3.654375 4.0071875 -3.21875 3.109375 C-2 1 -2 1 0 0 Z " fill="#124483" transform="translate(606,424)"/>
<path d="M0 0 C-1.72290605 0.70304222 -3.45367466 1.38683491 -5.1875 2.0625 C-6.63189453 2.63677734 -6.63189453 2.63677734 -8.10546875 3.22265625 C-11.20934675 4.05622133 -12.94919117 3.88679818 -16 3 C-13.43369922 1.28913281 -11.42554367 0.27355018 -8.5625 -0.75 C-7.80066406 -1.03359375 -7.03882813 -1.3171875 -6.25390625 -1.609375 C-3.48236249 -2.08971187 -2.33921011 -1.47066513 0 0 Z " fill="#1AB02B" transform="translate(916,519)"/>
<path d="M0 0 C-1.33586054 2.88164201 -2.83637331 5.25276708 -4.875 7.6875 C-5.36742187 8.28949219 -5.85984375 8.89148438 -6.3671875 9.51171875 C-8.22477098 11.20487499 -9.54739113 11.60184921 -12 12 C-3.26213592 0 -3.26213592 0 0 0 Z " fill="#134583" transform="translate(164,275)"/>
<path d="M0 0 C0.74609375 1.734375 0.74609375 1.734375 1 4 C-0.65234375 6.140625 -0.65234375 6.140625 -2.9375 8.25 C-3.68902344 8.95640625 -4.44054687 9.6628125 -5.21484375 10.390625 C-5.80394531 10.92171875 -6.39304687 11.4528125 -7 12 C-7.99 11.67 -8.98 11.34 -10 11 C-9.44570313 10.45730469 -8.89140625 9.91460938 -8.3203125 9.35546875 C-7.23363281 8.28232422 -7.23363281 8.28232422 -6.125 7.1875 C-5.40570313 6.47980469 -4.68640625 5.77210938 -3.9453125 5.04296875 C-1.84641063 2.95600806 -1.84641063 2.95600806 0 0 Z " fill="#1B4984" transform="translate(448,719)"/>
<path d="M0 0 C-4.30322683 1.46939453 -8.62297367 2.77443263 -13 4 C-13 3.01 -13 2.02 -13 1 C-11.59054634 0.43983252 -10.1719969 -0.09748502 -8.75 -0.625 C-7.96109375 -0.92664063 -7.1721875 -1.22828125 -6.359375 -1.5390625 C-3.50082285 -2.09752136 -2.41040161 -1.53690745 0 0 Z " fill="#21B030" transform="translate(825,549)"/>
<path d="M0 0 C1.60379341 -0.05416188 3.20811406 -0.09286638 4.8125 -0.125 C5.70582031 -0.14820313 6.59914063 -0.17140625 7.51953125 -0.1953125 C10 0 10 0 13 2 C6.565 2.495 6.565 2.495 0 3 C0 2.01 0 1.02 0 0 Z " fill="#0E3C76" transform="translate(604,506)"/>
<path d="M0 0 C0.66 0 1.32 0 2 0 C0.25 5.75 0.25 5.75 -2 8 C-2 8.99 -2 9.98 -2 11 C-3.98 11.99 -3.98 11.99 -6 13 C-4.58707905 8.1725201 -2.57025846 4.2837641 0 0 Z " fill="#D3E0EC" transform="translate(702,376)"/>
<path d="M0 0 C0.66 1.32 1.32 2.64 2 4 C1.34 4 0.68 4 0 4 C-0.28875 4.9075 -0.5775 5.815 -0.875 6.75 C-1.76531776 9.32202908 -2.71494413 11.61346766 -4 14 C-4.66 14 -5.32 14 -6 14 C-4.50829734 9.0276578 -2.39542583 4.58154261 0 0 Z " fill="#D3E0EB" transform="translate(728,326)"/>
<path d="M0 0 C2 1.375 2 1.375 4 3 C4 3.66 4 4.32 4 5 C4.99 5.33 5.98 5.66 7 6 C8.1875 8.0625 8.1875 8.0625 9 10 C6 10 6 10 4.39453125 8.57421875 C3.61142578 7.64029297 3.61142578 7.64029297 2.8125 6.6875 C2.01779297 5.76517578 2.01779297 5.76517578 1.20703125 4.82421875 C0 3 0 3 0 0 Z " fill="#14417F" transform="translate(339,935)"/>
<path d="M0 0 C-5.445 2.475 -5.445 2.475 -11 5 C-11.66 4.01 -12.32 3.02 -13 2 C-11.39935157 1.46845258 -9.79431126 0.95011647 -8.1875 0.4375 C-7.29417969 0.14746094 -6.40085937 -0.14257812 -5.48046875 -0.44140625 C-3 -1 -3 -1 0 0 Z " fill="#FE8935" transform="translate(1127,395)"/>
<path d="M0 0 C0.66 0.66 1.32 1.32 2 2 C-0.64 4.64 -3.28 7.28 -6 10 C-6.66 9.34 -7.32 8.68 -8 8 C-5.36 5.36 -2.72 2.72 0 0 Z " fill="#F4F6F9" transform="translate(173,260)"/>
<path d="M0 0 C1.0169313 2.65498232 1.13022151 3.69155375 0.00390625 6.359375 C-0.47175781 7.14828125 -0.94742188 7.9371875 -1.4375 8.75 C-1.91058594 9.54921875 -2.38367188 10.3484375 -2.87109375 11.171875 C-3.24363281 11.77515625 -3.61617187 12.3784375 -4 13 C-4.66 13 -5.32 13 -6 13 C-4.58707905 8.1725201 -2.57025846 4.2837641 0 0 Z " fill="#25528E" transform="translate(706,231)"/>
<path d="M0 0 C0.33 0 0.66 0 1 0 C1.24858198 2.77034137 1.47452879 5.53939069 1.6875 8.3125 C1.76033203 9.09818359 1.83316406 9.88386719 1.90820312 10.69335938 C1.96298828 11.45068359 2.01777344 12.20800781 2.07421875 12.98828125 C2.13182373 13.68477783 2.18942871 14.38127441 2.2487793 15.09887695 C2 17 2 17 -1 20 C-0.67 13.4 -0.34 6.8 0 0 Z " fill="#3E6897" transform="translate(658,946)"/>
<path d="M0 0 C3 1 3 1 4.6875 3.9375 C6 7 6 7 6 9 C5.01 8.67 4.02 8.34 3 8 C3 7.01 3 6.02 3 5 C1.68 5 0.36 5 -1 5 C-0.67 3.35 -0.34 1.7 0 0 Z " fill="#1A437E" transform="translate(949,700)"/>
<path d="M0 0 C3.3125 -0.1875 3.3125 -0.1875 7 0 C7.99 0.99 8.98 1.98 10 3 C4.06 3.495 4.06 3.495 -2 4 C-1.34 2.68 -0.68 1.36 0 0 Z " fill="#334260" transform="translate(625,503)"/>
<path d="M0 0 C0.66 0 1.32 0 2 0 C2.07654536 4.51617599 2.10228696 8.59085217 1 13 C-0.9078584 9.8250906 -1.1609041 7.89414789 -0.625 4.25 C-0.51414063 3.45078125 -0.40328125 2.6515625 -0.2890625 1.828125 C-0.19367188 1.22484375 -0.09828125 0.6215625 0 0 Z " fill="#235088" transform="translate(148,448)"/>
<path d="M0 0 C0.33 1.32 0.66 2.64 1 4 C1.66 4 2.32 4 3 4 C3.66 6.97 4.32 9.94 5 13 C2.47368858 9.87218586 0.57626634 6.70422589 -1 3 C-0.67 2.01 -0.34 1.02 0 0 Z " fill="#194B88" transform="translate(1008,766)"/>
<path d="M0 0 C-0.33 0.99 -0.66 1.98 -1 3 C-3.88211302 3.96070434 -5.69850044 4.10581883 -8.6875 4.0625 C-9.89986328 4.04896484 -9.89986328 4.04896484 -11.13671875 4.03515625 C-12.05904297 4.01775391 -12.05904297 4.01775391 -13 4 C-8.68630028 1.12420019 -5.19265239 0 0 0 Z " fill="#3DB94B" transform="translate(964,500)"/>
<path d="M0 0 C-1.26538369 0.84158536 -2.53753779 1.67299748 -3.8125 2.5 C-4.87404297 3.19609375 -4.87404297 3.19609375 -5.95703125 3.90625 C-8 5 -8 5 -11 5 C-10 2 -10 2 -8.22265625 1.015625 C-7.15337891 0.63664062 -7.15337891 0.63664062 -6.0625 0.25 C-5.35222656 -0.01296875 -4.64195313 -0.2759375 -3.91015625 -0.546875 C-2 -1 -2 -1 0 0 Z " fill="#3FC049" transform="translate(1218,411)"/>
<path d="M0 0 C0.99 0 1.98 0 3 0 C3 0.99 3 1.98 3 3 C-2.28 3 -7.56 3 -13 3 C-13 2.67 -13 2.34 -13 2 C-8.71 2 -4.42 2 0 2 C0 1.34 0 0.68 0 0 Z " fill="#0B3975" transform="translate(944,1025)"/>
<path d="M0 0 C0.66 0.99 1.32 1.98 2 3 C1.125 6.1875 1.125 6.1875 0 9 C-0.99 9 -1.98 9 -3 9 C-2.01 6.03 -1.02 3.06 0 0 Z " fill="#26518B" transform="translate(957,936)"/>
<path d="M0 0 C0.75 1.5625 0.75 1.5625 1 4 C-0.13084437 6.50286409 -1.52139516 8.67007722 -3 11 C-3.66 11 -4.32 11 -5 11 C-3.55049545 7.2089881 -1.84827434 3.6125362 0 0 Z " fill="#26508B" transform="translate(548,532)"/>
<path d="M0 0 C1 3 1 3 0.328125 4.7890625 C-0.02765625 5.39492188 -0.3834375 6.00078125 -0.75 6.625 C-1.09546875 7.23601562 -1.4409375 7.84703125 -1.796875 8.4765625 C-3 10 -3 10 -6 11 C-6 10.01 -6 9.02 -6 8 C-5.34 7.67 -4.68 7.34 -4 7 C-3.67 6.01 -3.34 5.02 -3 4 C-2.34 4 -1.68 4 -1 4 C-0.67 2.68 -0.34 1.36 0 0 Z " fill="#083974" transform="translate(729,321)"/>
<path d="M0 0 C0.75 1.5625 0.75 1.5625 1 4 C-0.13084437 6.50286409 -1.52139516 8.67007722 -3 11 C-3.66 11 -4.32 11 -5 11 C-3.77472971 6.94718288 -2.30119506 3.55639236 0 0 Z " fill="#25518C" transform="translate(714,216)"/>
<path d="M0 0 C-1 3 -1 3 -2.75 4.25 C-5.52724898 5.17574966 -7.21571665 4.77341204 -10 4 C-6.86268382 1.90845588 -3.85464592 0 0 0 Z " fill="#164B89" transform="translate(632,998)"/>
<path d="M0 0 C0.33 0 0.66 0 1 0 C0.50769231 6.4 0.50769231 6.4 -2.0625 9.4375 C-2.701875 9.953125 -3.34125 10.46875 -4 11 C-3.52269162 9.5410574 -3.04308958 8.08286504 -2.5625 6.625 C-2.29566406 5.81289063 -2.02882813 5.00078125 -1.75390625 4.1640625 C-1 2 -1 2 0 0 Z " fill="#335B92" transform="translate(952,948)"/>
<path d="M0 0 C1.00000429 4.00001715 0.80688405 6.05523353 0 10 C-0.99 10.33 -1.98 10.66 -3 11 C-2.01 7.37 -1.02 3.74 0 0 Z M1 5 C1.99 5.495 1.99 5.495 3 6 C2.01 6.495 2.01 6.495 1 7 C1 6.34 1 5.68 1 5 Z " fill="#3B6498" transform="translate(93,388)"/>
<path d="M0 0 C1.32 0.33 2.64 0.66 4 1 C4.66 4.3 5.32 7.6 6 11 C3.14557422 7.19409895 1.74627053 4.32409846 0 0 Z " fill="#144888" transform="translate(773,360)"/>
<path d="M0 0 C0.75 1.5625 0.75 1.5625 1 4 C-0.13084437 6.50286409 -1.52139516 8.67007722 -3 11 C-3.66 11 -4.32 11 -5 11 C-3.77472971 6.94718288 -2.30119506 3.55639236 0 0 Z " fill="#2A5691" transform="translate(720,205)"/>
<path d="M0 0 C0.99 0.66 1.98 1.32 3 2 C2.34 2 1.68 2 1 2 C1.061875 3.1446875 1.061875 3.1446875 1.125 4.3125 C1 7 1 7 -1 10 C-1.66 10 -2.32 10 -3 10 C-2.21302675 6.58978257 -1.12880057 3.31114834 0 0 Z " fill="#D2DFEB" transform="translate(960,993)"/>
<path d="M0 0 C0.66 0.33 1.32 0.66 2 1 C0.02 3.31 -1.96 5.62 -4 8 C-4.66 7.34 -5.32 6.68 -6 6 C-4.02 4.02 -2.04 2.04 0 0 Z " fill="#184985" transform="translate(647,986)"/>
<path d="M0 0 C0.66 0.99 1.32 1.98 2 3 C0.68 5.31 -0.64 7.62 -2 10 C-2.66 10 -3.32 10 -4 10 C-2.8905928 6.51329166 -1.73662334 3.22515763 0 0 Z " fill="#24508B" transform="translate(489,645)"/>
<path d="M0 0 C-0.33 0.66 -0.66 1.32 -1 2 C-1.66 1.67 -2.32 1.34 -3 1 C-3.33 1.66 -3.66 2.32 -4 3 C-5.98 3 -7.96 3 -10 3 C-4.375 -1.3125 -4.375 -1.3125 0 0 Z " fill="#105270" transform="translate(984,535)"/>
<path d="M0 0 C2.625 1.4375 2.625 1.4375 5 3 C3.1875 4.0625 3.1875 4.0625 1 5 C0.01 4.67 -0.98 4.34 -2 4 C-2 3.01 -2 2.02 -2 1 C-1.34 0.67 -0.68 0.34 0 0 Z " fill="#103A6E" transform="translate(863,457)"/>
<path d="M0 0 C2.46278801 2.46278801 2.99771255 4.70676982 4 8 C3.34 8.66 2.68 9.32 2 10 C1.01 7.03 0.02 4.06 -1 1 C-0.67 0.67 -0.34 0.34 0 0 Z " fill="#114888" transform="translate(1008,921)"/>
<path d="M0 0 C-0.33 0.99 -0.66 1.98 -1 3 C-3.3125 3.625 -3.3125 3.625 -6 4 C-6.99 3.34 -7.98 2.68 -9 2 C-3.375 0 -3.375 0 0 0 Z " fill="#1DB22D" transform="translate(894,524)"/>
<path d="M0 0 C0.33 0 0.66 0 1 0 C1 1.65 1 3.3 1 5 C0.34 5 -0.32 5 -1 5 C-1 6.32 -1 7.64 -1 9 C-1.99 9 -2.98 9 -4 9 C-2.80100302 5.9168649 -1.52299523 2.93720508 0 0 Z " fill="#1B4A86" transform="translate(569,492)"/>
<path d="M0 0 C1.13643966 3.40931897 0.86747764 4.00335456 -0.4375 7.1875 C-0.72496094 7.90292969 -1.01242187 8.61835938 -1.30859375 9.35546875 C-1.53675781 9.89816406 -1.76492188 10.44085938 -2 11 C-2.66 10.01 -3.32 9.02 -4 8 C-2.68 5.36 -1.36 2.72 0 0 Z " fill="#0F4485" transform="translate(591,450)"/>
<path d="M0 0 C0.66 0 1.32 0 2 0 C1.01 3.3 0.02 6.6 -1 10 C-1.33 10 -1.66 10 -2 10 C-2.17942163 6.05272412 -2.09350689 3.4019487 0 0 Z " fill="#355E90" transform="translate(952,1010)"/>
<path d="M0 0 C0.66 0.33 1.32 0.66 2 1 C0.515 4.465 0.515 4.465 -1 8 C-1.66 8 -2.32 8 -3 8 C-1.125 1.125 -1.125 1.125 0 0 Z " fill="#DAE5EF" transform="translate(981,944)"/>
<path d="M0 0 C2.5 2.3125 2.5 2.3125 5 5 C5 5.99 5 6.98 5 8 C2.5 6.25 2.5 6.25 0 4 C0 2.68 0 1.36 0 0 Z " fill="#1B4A87" transform="translate(152,700)"/>
<path d="M0 0 C0.33 0 0.66 0 1 0 C1.2506019 1.41303238 1.47461921 2.83079474 1.6875 4.25 C1.81511719 5.03890625 1.94273438 5.8278125 2.07421875 6.640625 C2 9 2 9 -1 13 C-0.67 8.71 -0.34 4.42 0 0 Z " fill="#446C9E" transform="translate(77,456)"/>
<path d="M0 0 C0.66 1.32 1.32 2.64 2 4 C1.34 4.66 0.68 5.32 0 6 C-0.99 6 -1.98 6 -3 6 C-1.125 1.125 -1.125 1.125 0 0 Z " fill="#19447F" transform="translate(979,887)"/>
<path d="M0 0 C1.5 1.125 1.5 1.125 3 3 C3.1875 6.1875 3.1875 6.1875 3 9 C0.53721199 6.53721199 0.00228745 4.29323018 -1 1 C-0.67 0.67 -0.34 0.34 0 0 Z " fill="#144885" transform="translate(994,737)"/>
<path d="M0 0 C0.66 0.99 1.32 1.98 2 3 C0.625 5.5 0.625 5.5 -1 8 C-1.66 8 -2.32 8 -3 8 C-1.125 2.25 -1.125 2.25 0 0 Z " fill="#D3E1EE" transform="translate(573,627)"/>
<path d="M0 0 C3.0916909 2.52956528 3.90931332 5.22454612 5 9 C3.0625 8.4375 3.0625 8.4375 1 7 C0.25 3.375 0.25 3.375 0 0 Z " fill="#113C78" transform="translate(894,586)"/>
<path d="M0 0 C-3.20380017 2.13586678 -4.01939967 2.23132175 -7.6875 2.125 C-8.89986328 2.09792969 -8.89986328 2.09792969 -10.13671875 2.0703125 C-11.05904297 2.03550781 -11.05904297 2.03550781 -12 2 C-7.89783794 -0.73477471 -4.73617773 -1.57872591 0 0 Z " fill="#FD9D55" transform="translate(807,475)"/>
<path d="M0 0 C0.33 0 0.66 0 1 0 C2.12029814 5.48946087 1.79217969 8.83430559 0 14 C-0.33 14 -0.66 14 -1 14 C-1.08333357 9.1666528 -0.95261487 4.76307437 0 0 Z " fill="#436C9C" transform="translate(79,441)"/>
<path d="M0 0 C2.35953094 2.35953094 2.49141413 3.77895617 3 7 C2.01 7 1.02 7 0 7 C-1.125 2.25 -1.125 2.25 0 0 Z " fill="#1F518D" transform="translate(928,418)"/>
</svg>
